<svg id="svg" version="1.1" xmlns="http://www.w3.org/2000/svg" xmlns:xlink="http://www.w3.org/1999/xlink" width="400" height="400" viewBox="0, 0, 400,400"><g id="svgg"><path id="path0" d="M0.000 5.000 C 0.000 9.901,0.600 11.722,1.392 9.226 C 2.058 7.125,7.714 2.655,10.526 2.006 C 12.815 1.478,389.585 1.478,391.874 2.006 C 393.718 2.432,396.990 4.462,398.129 5.888 C 399.561 7.680,400.000 7.097,400.000 3.400 L 400.000 0.000 200.000 0.000 L 0.000 0.000 0.000 5.000 M43.475 114.273 C 43.214 114.594,42.655 115.234,42.234 115.695 C 41.610 116.376,41.461 117.172,41.434 119.955 L 41.400 123.376 44.743 124.075 C 46.582 124.459,48.317 124.965,48.600 125.200 C 48.882 125.434,50.708 125.807,52.657 126.028 C 56.635 126.478,58.999 127.660,59.440 129.417 C 59.912 131.297,58.760 161.645,58.150 163.400 C 57.787 164.445,57.462 168.399,57.213 174.800 C 56.613 190.223,56.370 193.677,55.764 195.395 C 55.399 196.429,55.123 199.493,54.988 204.000 C 54.710 213.243,54.095 220.534,53.385 223.000 C 53.012 224.296,52.681 228.518,52.446 235.000 C 52.175 242.477,51.920 245.454,51.435 246.800 C 50.726 248.767,50.614 249.837,49.972 260.800 C 49.659 266.141,49.380 268.376,48.969 268.831 C 48.646 269.190,48.400 270.281,48.400 271.352 C 48.400 273.254,46.345 275.992,44.914 275.998 C 44.646 275.999,43.892 276.523,43.238 277.163 C 42.584 277.803,41.452 278.452,40.724 278.606 C 39.996 278.760,39.040 279.216,38.600 279.619 C 38.160 280.022,37.036 280.523,36.103 280.733 C 33.784 281.253,30.544 284.520,30.205 286.680 C 29.393 291.853,28.805 291.538,38.600 291.170 C 43.000 291.005,69.381 290.854,97.224 290.835 C 137.091 290.807,147.976 290.694,148.452 290.300 C 150.019 289.003,150.490 287.474,150.953 282.179 C 151.309 278.096,151.583 276.682,152.133 276.074 C 152.535 275.630,153.003 274.195,153.200 272.800 C 153.393 271.434,153.866 269.969,154.251 269.544 C 155.583 268.072,155.843 260.800,154.563 260.800 C 154.268 260.800,153.494 260.279,152.842 259.641 C 151.929 258.749,151.001 258.366,148.795 257.971 C 145.435 257.371,145.418 257.384,145.032 260.800 C 144.859 262.327,144.509 263.339,143.992 263.807 C 143.523 264.231,143.108 265.302,142.950 266.493 C 142.805 267.583,142.376 268.772,141.995 269.137 C 141.615 269.502,140.931 270.655,140.474 271.700 C 140.018 272.745,139.458 273.600,139.230 273.600 C 139.002 273.600,138.701 274.055,138.562 274.611 C 138.110 276.408,138.271 276.400,103.636 276.400 L 70.418 276.400 69.834 275.500 C 69.003 274.221,69.720 242.044,70.646 239.049 C 71.061 237.707,71.363 233.957,71.613 227.049 C 72.234 209.887,72.467 208.411,74.687 207.567 C 76.468 206.890,129.678 207.099,130.660 207.787 C 131.367 208.282,131.526 208.893,131.673 211.687 C 131.781 213.740,132.088 215.380,132.478 216.000 C 132.866 216.617,133.209 218.444,133.373 220.770 C 133.520 222.844,133.731 224.689,133.843 224.870 C 134.269 225.559,138.863 225.226,140.182 224.411 L 141.458 223.623 141.891 216.398 C 142.228 210.790,142.478 208.940,143.010 208.129 C 143.453 207.452,143.809 205.729,144.019 203.242 C 144.512 197.396,144.850 195.466,145.515 194.701 C 145.900 194.258,146.233 192.669,146.423 190.367 C 146.661 187.498,146.901 186.544,147.562 185.840 C 148.440 184.906,148.736 182.255,148.013 181.808 C 147.079 181.231,140.686 181.503,140.332 182.136 C 140.140 182.479,139.749 182.994,139.463 183.280 C 139.178 183.566,138.718 184.700,138.442 185.800 C 138.166 186.900,137.688 188.079,137.380 188.420 C 137.073 188.761,136.549 189.812,136.215 190.756 C 135.478 192.847,133.948 194.762,132.267 195.700 C 131.106 196.348,128.939 196.400,103.117 196.400 L 75.221 196.400 74.610 195.220 C 73.632 193.329,74.251 178.055,75.443 174.678 C 75.807 173.647,76.154 169.884,76.407 164.233 C 76.826 154.847,76.953 153.763,77.835 152.073 C 78.155 151.460,78.396 149.826,78.398 148.259 C 78.402 143.510,79.276 133.850,79.814 132.600 C 80.098 131.940,80.534 130.744,80.783 129.942 C 81.413 127.908,79.695 128.009,113.400 128.028 C 148.114 128.048,145.859 127.828,147.977 131.400 L 149.400 133.800 149.299 138.503 C 149.218 142.308,149.046 143.491,148.399 144.697 C 147.886 145.654,147.600 146.953,147.600 148.323 L 147.600 150.458 149.900 150.202 C 151.165 150.062,152.560 149.774,153.000 149.564 C 153.440 149.353,154.693 148.960,155.785 148.690 C 157.566 148.250,157.798 148.065,158.038 146.884 C 158.185 146.160,158.616 145.225,158.994 144.806 C 159.430 144.325,159.809 142.922,160.025 140.996 C 160.222 139.244,160.694 137.406,161.136 136.674 C 161.560 135.973,162.024 134.571,162.169 133.558 C 162.345 132.323,162.756 131.435,163.416 130.861 C 164.043 130.316,164.400 129.580,164.400 128.833 C 164.400 128.189,164.821 127.153,165.335 126.531 C 167.548 123.853,167.511 119.257,165.258 117.056 L 163.799 115.632 108.399 115.509 C 58.052 115.397,52.836 115.325,51.200 114.724 C 48.634 113.781,44.089 113.516,43.475 114.273 M248.115 114.571 C 247.036 115.498,247.000 115.655,247.000 119.458 L 247.000 123.387 250.000 124.023 C 251.650 124.372,253.900 124.951,255.000 125.309 C 256.100 125.668,258.423 126.237,260.162 126.575 C 263.674 127.256,264.676 127.913,265.011 129.755 C 265.445 132.141,264.466 154.573,263.846 156.448 C 263.494 157.511,263.173 160.716,263.028 164.600 C 262.399 181.501,261.867 189.858,261.337 191.168 C 260.968 192.081,260.715 195.009,260.577 199.968 C 260.326 208.976,259.747 215.911,259.022 218.600 C 258.697 219.805,258.312 225.032,258.052 231.753 C 257.729 240.127,257.481 243.123,257.054 243.773 C 256.718 244.286,256.382 246.265,256.232 248.620 C 255.540 259.399,255.099 263.956,254.588 265.600 C 254.280 266.590,253.905 268.812,253.755 270.538 C 253.458 273.957,252.745 275.092,250.192 276.207 C 249.527 276.497,248.654 277.099,248.250 277.544 C 247.847 277.990,246.951 278.474,246.259 278.621 C 245.566 278.767,244.640 279.216,244.200 279.619 C 243.760 280.022,242.604 280.530,241.631 280.749 C 240.658 280.967,239.703 281.429,239.510 281.776 C 239.316 282.122,238.462 282.760,237.612 283.194 C 235.967 284.033,235.846 284.317,235.380 288.421 C 235.023 291.558,234.872 291.511,244.200 291.166 C 248.600 291.003,274.970 290.852,302.800 290.829 C 330.630 290.806,353.606 290.656,353.859 290.494 C 354.111 290.332,354.526 289.390,354.782 288.400 C 355.038 287.410,355.486 286.060,355.778 285.400 C 356.071 284.740,356.437 282.323,356.592 280.028 C 356.877 275.819,357.287 274.041,358.086 273.547 C 358.326 273.399,358.676 272.135,358.865 270.739 C 359.054 269.342,359.537 267.750,359.939 267.200 C 361.673 264.823,361.458 261.008,359.566 260.592 C 358.939 260.455,357.811 259.925,357.059 259.414 C 356.306 258.903,354.739 258.282,353.576 258.032 C 351.184 257.519,351.079 257.589,350.367 260.164 C 350.129 261.024,349.697 262.104,349.406 262.564 C 349.115 263.024,348.753 264.210,348.602 265.200 C 348.450 266.190,347.914 267.630,347.409 268.400 C 346.905 269.170,346.381 270.281,346.246 270.869 C 346.111 271.457,345.550 272.473,345.000 273.127 C 344.450 273.781,344.000 274.504,344.000 274.735 C 344.000 276.394,343.871 276.400,309.165 276.400 C 276.338 276.400,276.101 276.394,275.055 275.572 C 274.167 274.874,274.071 274.614,274.443 273.921 C 274.728 273.387,275.004 266.825,275.228 255.249 C 275.418 245.432,275.759 236.365,275.987 235.100 C 277.038 229.252,277.181 227.649,277.401 219.280 C 277.664 209.277,277.804 208.608,279.816 207.767 C 282.075 206.824,335.273 207.101,336.233 208.061 C 336.686 208.514,337.008 209.899,337.257 212.461 C 337.456 214.518,337.795 216.722,338.010 217.360 C 338.224 217.998,338.400 219.425,338.400 220.531 C 338.400 224.517,338.938 225.200,342.075 225.200 L 344.790 225.200 345.779 223.633 C 347.087 221.561,347.139 221.273,347.586 213.600 C 347.897 208.265,348.127 206.696,348.786 205.415 C 349.285 204.443,349.601 203.052,349.603 201.815 C 349.607 199.055,350.323 194.846,351.031 193.421 C 351.354 192.773,351.811 190.973,352.047 189.421 C 352.311 187.690,352.771 186.281,353.239 185.774 C 354.045 184.900,354.297 182.231,353.613 181.808 C 353.400 181.677,351.653 181.556,349.731 181.540 C 345.648 181.506,344.000 182.609,344.000 185.376 C 344.000 186.207,343.639 187.180,343.076 187.869 C 342.568 188.491,341.930 189.765,341.660 190.700 C 341.389 191.635,340.986 192.400,340.764 192.400 C 340.541 192.400,340.106 193.006,339.797 193.746 C 338.652 196.485,339.641 196.400,308.813 196.400 C 290.507 196.400,280.886 196.260,280.374 195.986 C 279.045 195.275,279.664 173.345,281.090 170.600 C 281.558 169.698,281.791 167.361,282.025 161.196 C 282.251 155.277,282.519 152.492,282.988 151.196 C 283.389 150.089,283.784 147.020,284.017 143.200 C 284.784 130.618,285.155 129.084,287.600 128.363 C 289.805 127.714,350.329 128.045,351.499 128.713 C 352.638 129.364,354.000 132.004,354.000 133.560 C 354.000 134.216,354.180 134.864,354.400 135.000 C 355.001 135.371,354.881 138.870,354.201 140.797 C 353.476 142.853,352.874 147.563,353.122 149.249 C 353.318 150.588,353.397 150.596,357.000 149.648 C 357.880 149.416,359.623 149.030,360.874 148.790 L 363.148 148.354 363.421 146.171 C 363.571 144.971,364.041 143.547,364.466 143.007 C 365.068 142.241,365.982 138.753,365.998 137.161 C 365.999 137.030,366.352 136.517,366.781 136.021 C 367.211 135.526,367.680 134.283,367.823 133.260 C 367.966 132.237,368.502 130.770,369.014 130.000 C 369.526 129.230,370.070 127.911,370.223 127.069 C 370.376 126.226,370.828 125.232,371.228 124.860 C 373.052 123.161,372.832 119.811,370.721 117.116 L 369.558 115.632 314.079 115.516 C 263.404 115.410,258.461 115.342,257.000 114.734 C 254.089 113.523,249.433 113.438,248.115 114.571 M203.853 270.769 C 203.002 271.175,201.252 271.627,199.965 271.772 C 197.551 272.045,197.405 272.138,193.702 275.738 C 192.988 276.432,192.403 277.339,192.402 277.753 C 192.401 278.167,192.063 279.067,191.651 279.753 C 190.637 281.442,190.255 285.908,191.012 287.219 C 191.324 287.758,191.850 288.772,192.183 289.471 C 192.515 290.170,193.194 290.866,193.693 291.017 C 194.192 291.168,195.022 291.676,195.538 292.146 C 196.796 293.292,206.350 293.331,207.605 292.195 C 208.011 291.828,209.104 291.357,210.034 291.148 C 211.308 290.862,212.302 290.184,214.062 288.401 L 216.400 286.034 216.494 282.317 C 216.674 275.232,216.575 274.513,215.225 273.163 C 212.890 270.829,206.531 269.490,203.853 270.769 M0.000 398.400 C 0.000 399.911,0.067 400.000,1.200 400.000 C 2.588 400.000,2.659 399.721,1.700 398.035 C 0.713 396.300,0.000 396.453,0.000 398.400 " stroke="none" fill="#3e455d" fill-rule="evenodd"></path><path id="path1" d="M14.600 3.172 C 13.720 3.312,12.190 3.822,11.200 4.305 C 10.210 4.787,9.130 5.189,8.800 5.196 C 7.700 5.221,2.806 10.362,2.791 11.507 C 2.776 12.739,1.258 15.600,0.620 15.600 C 0.061 15.600,0.000 34.099,0.000 203.400 C 0.000 372.701,0.061 391.200,0.620 391.200 C 1.256 391.200,2.776 394.059,2.791 395.286 C 2.796 395.664,3.340 396.525,4.000 397.200 C 4.660 397.875,5.200 398.781,5.200 399.214 C 5.200 399.994,6.612 400.000,201.112 400.000 L 397.025 400.000 397.471 398.818 C 397.753 398.071,398.300 397.540,398.958 397.375 L 400.000 397.113 400.000 203.357 C 400.000 31.382,399.933 9.600,399.400 9.600 C 399.070 9.600,397.829 8.622,396.643 7.426 C 395.127 5.898,394.058 5.172,393.040 4.981 C 392.244 4.832,391.104 4.325,390.506 3.855 L 389.420 3.000 202.810 2.958 C 100.174 2.936,15.480 3.032,14.600 3.172 M265.800 112.881 C 270.793 113.152,293.588 113.396,322.000 113.483 L 369.800 113.630 371.383 114.723 C 372.542 115.523,373.077 116.245,373.383 117.420 C 373.612 118.302,374.212 119.431,374.715 119.927 C 375.625 120.825,375.595 121.196,374.514 122.460 C 374.203 122.823,373.702 124.056,373.400 125.200 C 373.098 126.344,372.553 127.609,372.190 128.012 C 371.826 128.414,371.353 129.521,371.140 130.471 C 370.926 131.422,370.413 132.560,370.000 133.000 C 369.571 133.457,369.076 134.877,368.845 136.311 C 368.623 137.692,368.093 139.264,367.667 139.805 C 367.236 140.354,366.767 141.801,366.608 143.076 C 366.251 145.929,364.630 149.123,363.239 149.713 C 362.668 149.956,361.908 150.508,361.550 150.940 C 361.002 151.605,360.252 151.756,356.727 151.912 L 352.554 152.098 351.477 150.818 C 350.192 149.292,350.125 148.339,351.201 146.884 C 352.573 145.027,352.413 131.200,351.019 131.200 C 350.747 131.200,350.198 130.840,349.800 130.400 C 349.088 129.613,348.568 129.600,318.389 129.600 L 287.703 129.600 287.417 134.390 C 287.200 138.026,286.962 139.399,286.428 140.090 C 285.838 140.854,285.650 142.532,285.254 150.534 C 284.912 157.441,284.609 160.471,284.154 161.534 C 283.707 162.577,283.365 165.826,282.968 172.800 C 282.624 178.853,282.193 183.212,281.843 184.200 C 281.218 185.963,280.659 192.367,281.043 193.368 C 281.261 193.936,284.096 193.999,308.943 193.995 C 338.465 193.989,338.400 193.992,338.400 192.608 C 338.400 192.114,338.940 191.031,339.600 190.200 C 340.260 189.369,340.800 188.279,340.800 187.776 C 340.800 187.273,341.250 186.327,341.800 185.673 C 342.380 184.984,342.800 183.981,342.800 183.287 C 342.800 180.351,351.290 178.394,354.604 180.566 C 356.135 181.569,355.742 188.063,354.055 189.634 C 353.490 190.161,353.268 191.124,353.104 193.752 C 352.948 196.240,352.657 197.577,352.042 198.618 C 351.356 199.782,351.116 201.161,350.782 205.871 C 350.528 209.436,350.079 212.561,349.621 213.944 C 349.169 215.307,348.787 217.930,348.655 220.570 C 348.366 226.370,348.273 226.466,342.704 226.713 C 336.479 226.990,336.373 226.864,336.007 218.752 C 335.746 212.975,335.653 212.433,334.626 210.680 L 333.524 208.800 307.352 208.800 L 281.180 208.800 280.790 209.826 C 280.576 210.390,280.400 211.470,280.400 212.224 C 280.400 212.979,280.054 214.633,279.631 215.898 C 278.962 217.904,278.806 220.255,278.417 234.200 C 278.171 243.000,277.787 251.280,277.564 252.600 C 276.877 256.647,276.482 262.311,276.440 268.700 L 276.400 274.800 309.019 274.800 L 341.637 274.800 342.319 273.525 C 342.693 272.824,343.438 271.792,343.974 271.233 C 344.580 270.600,345.066 269.471,345.259 268.249 C 345.430 267.168,345.923 265.905,346.354 265.442 C 346.869 264.889,347.275 263.602,347.537 261.696 C 347.923 258.882,348.318 258.080,350.591 255.494 C 351.354 254.626,352.787 254.881,354.822 256.246 C 355.603 256.771,356.700 257.200,357.260 257.200 C 357.819 257.200,358.619 257.581,359.038 258.046 C 359.457 258.511,360.214 259.050,360.719 259.243 C 361.225 259.437,361.890 260.195,362.196 260.929 C 362.503 261.663,363.040 262.501,363.390 262.792 C 363.968 263.271,363.955 263.398,363.247 264.160 C 362.818 264.623,362.345 265.898,362.193 267.000 C 362.041 268.100,361.472 269.964,360.927 271.141 C 360.319 272.457,359.814 274.507,359.618 276.456 C 359.412 278.497,359.058 279.894,358.625 280.372 C 358.115 280.935,357.878 282.302,357.646 286.012 C 357.396 290.024,357.211 291.002,356.625 291.431 C 356.047 291.854,345.940 291.978,303.855 292.077 C 265.909 292.167,251.529 292.325,250.800 292.658 C 247.611 294.115,233.882 294.657,232.907 293.365 C 232.043 292.220,232.473 288.164,233.566 287.146 C 234.148 286.604,234.400 285.876,234.400 284.738 C 234.400 282.757,236.658 280.409,239.332 279.608 C 240.235 279.337,241.164 278.855,241.398 278.535 C 241.631 278.216,242.610 277.778,243.572 277.562 C 244.534 277.346,245.848 276.726,246.492 276.184 C 247.135 275.643,248.113 275.087,248.664 274.948 C 249.216 274.810,250.094 274.270,250.615 273.748 C 251.137 273.227,251.752 272.800,251.982 272.800 C 252.243 272.800,252.408 271.333,252.421 268.900 C 252.451 263.581,253.341 254.811,253.970 253.647 C 254.311 253.015,254.609 249.579,254.853 243.447 C 255.129 236.533,255.414 233.494,255.982 231.400 C 256.576 229.215,256.838 226.112,257.179 217.268 C 257.518 208.481,257.760 205.607,258.258 204.468 C 258.672 203.521,258.958 201.438,259.063 198.600 C 259.707 181.209,260.030 176.302,260.627 174.886 C 261.134 173.681,261.326 170.372,261.640 157.400 C 261.983 143.224,262.119 141.098,262.831 138.753 C 263.425 136.795,263.604 135.232,263.517 132.753 L 263.400 129.400 260.899 129.161 C 259.422 129.020,258.097 128.649,257.664 128.258 C 257.217 127.853,255.651 127.434,253.655 127.183 C 250.599 126.800,249.497 126.504,248.000 125.666 C 247.670 125.481,246.680 124.986,245.800 124.565 C 243.836 123.626,243.185 119.548,244.728 117.848 C 245.151 117.381,245.595 116.221,245.715 115.269 C 246.145 111.845,246.301 111.826,265.800 112.881 M67.694 113.227 C 68.466 113.448,88.262 113.600,116.362 113.600 L 163.730 113.600 165.466 114.617 C 166.509 115.229,167.560 116.287,168.101 117.271 C 168.595 118.172,169.227 119.289,169.504 119.754 C 170.098 120.752,169.836 122.173,168.820 123.465 C 168.419 123.975,167.965 125.070,167.813 125.897 C 167.660 126.723,167.202 127.760,166.795 128.200 C 166.388 128.640,165.754 129.900,165.386 131.000 C 165.018 132.100,164.483 133.270,164.199 133.600 C 163.914 133.930,163.496 135.404,163.271 136.875 C 163.045 138.346,162.505 140.056,162.069 140.675 C 161.560 141.399,161.186 142.798,161.018 144.600 C 160.707 147.960,160.119 148.973,158.114 149.608 C 157.281 149.872,156.405 150.331,156.167 150.628 C 154.850 152.273,147.429 152.642,146.023 151.132 C 145.434 150.500,145.329 150.127,145.636 149.756 C 146.171 149.112,146.907 136.867,146.572 134.200 C 146.386 132.722,145.997 131.861,145.082 130.900 L 143.843 129.600 112.983 129.600 L 82.123 129.600 81.854 135.234 C 81.670 139.092,81.346 141.584,80.826 143.134 C 80.259 144.826,79.962 147.477,79.653 153.600 C 79.401 158.596,79.018 162.425,78.674 163.400 C 78.019 165.257,77.763 167.948,77.175 179.177 C 76.898 184.469,76.544 187.837,76.173 188.725 C 75.100 191.294,75.391 193.458,76.850 193.750 C 78.425 194.065,130.693 194.072,131.866 193.757 C 132.348 193.627,132.843 193.082,132.982 192.528 C 133.120 191.980,133.589 191.149,134.025 190.681 C 134.461 190.213,134.929 189.132,135.066 188.278 C 135.202 187.424,135.738 186.221,136.257 185.605 C 136.776 184.989,137.200 184.222,137.200 183.902 C 137.200 182.071,138.101 180.804,139.711 180.370 C 144.307 179.133,152.025 180.640,150.501 182.478 C 150.264 182.765,149.886 184.317,149.664 185.926 C 149.441 187.535,148.943 189.333,148.558 189.921 C 148.090 190.634,147.696 192.564,147.372 195.715 C 147.036 198.996,146.688 200.661,146.231 201.165 C 145.732 201.717,145.474 203.317,145.158 207.829 C 144.902 211.470,144.456 214.624,144.005 215.983 C 143.600 217.203,143.182 219.795,143.076 221.744 C 142.827 226.308,142.733 226.397,137.803 226.691 C 131.044 227.094,131.105 227.177,130.464 216.615 C 130.109 210.760,130.004 210.170,129.194 209.515 C 127.917 208.480,75.840 208.397,75.444 209.429 C 75.312 209.774,74.923 212.879,74.580 216.329 C 74.237 219.778,73.788 223.050,73.581 223.600 C 73.374 224.150,73.031 231.800,72.818 240.600 C 72.604 249.400,72.248 257.230,72.026 258.000 C 71.586 259.523,70.803 268.801,70.801 272.500 L 70.800 274.800 104.000 274.800 L 137.200 274.800 137.200 273.974 C 137.200 272.974,137.794 271.806,138.830 270.770 C 139.254 270.346,139.600 269.654,139.600 269.231 C 139.600 268.808,140.021 267.953,140.534 267.331 C 141.146 266.591,141.623 265.249,141.915 263.448 C 142.212 261.611,142.633 260.442,143.180 259.932 C 143.702 259.447,144.000 258.665,144.000 257.784 C 144.000 256.381,145.115 254.798,146.100 254.802 C 147.310 254.808,149.540 255.667,149.748 256.208 C 149.873 256.534,150.422 256.800,150.969 256.800 C 152.340 256.800,154.000 257.613,154.000 258.285 C 154.000 258.591,154.497 259.015,155.104 259.226 C 156.807 259.820,158.293 262.865,157.584 264.309 C 157.290 264.909,156.838 266.767,156.582 268.439 C 156.310 270.207,155.772 271.963,155.296 272.639 C 154.727 273.444,154.325 275.025,153.981 277.800 C 153.708 280.000,153.222 282.227,152.901 282.749 C 152.579 283.273,152.226 285.153,152.113 286.949 C 152.001 288.737,151.655 290.605,151.345 291.100 L 150.782 292.000 102.091 292.042 C 55.455 292.083,48.376 292.220,43.000 293.184 C 38.875 293.925,30.353 294.314,28.800 293.833 C 26.994 293.274,26.597 290.322,27.980 287.741 C 28.431 286.900,28.800 285.513,28.800 284.660 C 28.800 282.680,31.344 280.125,33.696 279.742 C 34.519 279.608,35.628 279.095,36.162 278.600 C 36.695 278.106,37.822 277.575,38.666 277.420 C 39.510 277.264,40.650 276.722,41.200 276.214 C 41.750 275.706,42.591 275.172,43.068 275.028 C 43.546 274.884,44.563 274.189,45.328 273.483 L 46.721 272.200 47.168 265.218 C 47.500 260.044,47.784 257.979,48.264 257.247 C 48.784 256.453,48.976 254.477,49.240 247.229 C 49.641 236.202,49.794 234.629,50.582 233.504 C 51.020 232.879,51.200 231.646,51.200 229.277 C 51.200 222.139,52.066 210.219,52.687 208.800 C 53.151 207.742,53.377 204.960,53.614 197.400 C 53.999 185.094,54.354 180.503,55.022 179.181 C 55.389 178.455,55.666 173.787,55.984 162.981 C 56.229 154.631,56.592 147.170,56.789 146.400 C 57.677 142.934,58.048 139.024,57.929 134.404 L 57.800 129.409 55.961 129.146 C 54.950 129.002,53.576 128.601,52.908 128.256 C 52.240 127.910,50.007 127.430,47.947 127.189 C 45.437 126.895,43.842 126.495,43.116 125.975 C 42.520 125.549,41.747 125.200,41.397 125.200 C 39.445 125.200,37.764 121.252,39.161 119.951 C 39.773 119.380,40.000 118.682,40.000 117.365 C 40.000 115.403,40.794 113.495,41.900 112.799 C 42.748 112.266,65.668 112.646,67.694 113.227 M214.000 269.800 C 215.195 270.570,216.272 271.200,216.393 271.200 C 218.400 271.200,220.259 280.540,218.620 282.391 C 218.323 282.726,217.895 284.209,217.669 285.687 C 217.217 288.636,214.803 291.686,212.461 292.268 C 211.877 292.413,210.891 292.907,210.268 293.366 C 208.360 294.772,195.194 294.864,193.904 293.481 C 193.407 292.948,192.623 292.393,192.163 292.249 C 189.767 291.497,189.400 290.410,189.400 284.060 L 189.400 278.184 190.919 275.896 C 191.754 274.638,192.834 273.404,193.319 273.155 C 193.803 272.906,194.675 272.260,195.255 271.719 C 195.903 271.115,196.984 270.651,198.055 270.517 C 199.015 270.396,200.160 269.983,200.600 269.600 C 201.814 268.541,202.240 268.466,207.213 268.432 L 211.827 268.400 214.000 269.800 " stroke="none" fill="#fcdccc" fill-rule="evenodd"></path><path id="path2" d="M10.342 2.025 C 7.711 2.648,2.029 7.218,1.392 9.226 C 1.257 9.652,0.888 10.000,0.573 10.000 C 0.228 10.000,0.000 10.399,0.000 11.000 C 0.000 12.567,1.124 12.206,1.843 10.408 C 2.796 8.027,6.895 4.415,10.025 3.200 L 12.600 2.200 201.600 2.200 L 390.600 2.200 393.200 3.454 C 394.630 4.144,396.420 5.359,397.178 6.154 C 398.479 7.518,400.000 8.082,400.000 7.200 C 400.000 6.980,399.743 6.800,399.429 6.800 C 399.115 6.800,398.530 6.389,398.129 5.888 C 396.990 4.462,393.718 2.432,391.874 2.006 C 389.752 1.516,12.414 1.535,10.342 2.025 M42.887 113.824 C 41.492 114.801,40.893 116.364,40.593 119.812 C 40.211 124.188,40.302 124.253,49.400 126.096 C 54.656 127.161,57.933 128.323,58.601 129.360 C 59.185 130.266,58.784 145.237,57.985 152.400 C 57.561 156.196,57.051 163.783,56.403 175.933 C 56.164 180.406,55.699 186.616,55.368 189.733 C 55.038 192.850,54.596 198.550,54.386 202.400 C 53.978 209.905,53.383 216.575,53.077 217.086 C 52.973 217.259,52.588 222.440,52.220 228.600 C 51.853 234.760,51.278 241.330,50.943 243.200 C 50.607 245.070,50.171 248.850,49.973 251.600 C 49.613 256.601,49.166 260.764,48.383 266.400 C 48.154 268.050,47.863 270.242,47.735 271.272 C 47.515 273.052,45.371 275.600,44.093 275.600 C 43.899 275.600,43.314 276.053,42.793 276.607 C 42.273 277.161,40.951 277.880,39.857 278.205 C 38.762 278.530,37.582 279.037,37.233 279.330 C 36.885 279.624,35.790 280.164,34.800 280.531 C 30.455 282.141,27.091 289.682,29.607 292.172 C 30.230 292.790,40.287 292.383,41.342 291.698 C 41.594 291.534,66.152 291.310,95.915 291.200 C 142.342 291.028,150.080 290.918,150.384 290.426 C 150.579 290.110,150.859 288.760,151.007 287.426 C 151.591 282.153,152.373 277.729,152.971 276.313 C 153.317 275.495,153.600 274.445,153.600 273.980 C 153.600 273.515,154.134 271.918,154.786 270.432 C 155.695 268.361,155.998 267.015,156.086 264.666 L 156.200 261.603 154.400 259.946 C 152.765 258.441,148.043 256.429,146.091 256.406 C 145.500 256.399,145.398 256.646,143.368 263.000 C 142.524 265.640,141.512 268.229,141.117 268.754 C 140.723 269.279,140.397 269.909,140.393 270.154 C 140.386 270.556,139.094 272.689,137.396 275.100 L 136.763 276.000 104.155 276.000 C 82.443 276.000,71.289 275.862,70.774 275.586 C 69.633 274.975,69.930 255.108,71.214 246.200 C 71.436 244.660,71.886 237.100,72.213 229.400 C 72.824 215.051,73.493 209.518,74.740 208.500 C 75.662 207.748,129.713 207.773,130.338 208.526 C 130.728 208.995,130.935 210.318,131.794 217.800 C 132.727 225.928,132.948 226.250,137.307 225.845 C 141.919 225.416,142.181 225.016,142.562 217.800 C 142.690 215.380,143.073 212.230,143.414 210.800 C 143.755 209.370,144.210 206.580,144.426 204.600 C 144.642 202.620,145.018 200.460,145.261 199.800 C 145.713 198.570,146.101 196.569,146.774 192.000 C 146.984 190.570,147.616 188.181,148.178 186.691 C 150.077 181.657,149.433 180.807,143.719 180.802 C 139.905 180.799,138.834 181.595,137.803 185.200 C 137.645 185.750,137.265 186.599,136.958 187.087 C 136.650 187.575,136.036 188.925,135.593 190.087 C 135.150 191.249,134.263 192.830,133.622 193.600 L 132.458 195.000 103.934 195.000 L 75.411 195.000 74.903 193.941 C 74.378 192.845,74.484 191.357,76.178 176.000 C 76.506 173.030,76.790 169.340,76.809 167.800 C 76.828 166.260,77.100 163.470,77.414 161.600 C 77.728 159.730,78.334 154.420,78.762 149.800 C 79.189 145.180,79.725 140.230,79.951 138.800 C 80.178 137.370,80.553 134.776,80.786 133.035 C 81.019 131.295,81.409 129.630,81.654 129.335 C 82.257 128.608,143.385 128.537,144.976 129.262 C 147.151 130.253,149.058 135.341,148.363 138.300 C 147.554 141.748,146.778 150.092,147.218 150.622 C 147.948 151.501,152.935 150.870,155.909 149.522 C 158.782 148.219,159.782 146.623,160.399 142.354 C 160.578 141.118,161.024 139.527,161.390 138.819 C 161.756 138.111,162.297 136.381,162.591 134.976 C 162.885 133.571,163.502 131.942,163.963 131.357 C 164.423 130.771,164.800 130.072,164.800 129.802 C 164.800 129.533,165.340 128.301,166.000 127.064 C 166.660 125.827,167.200 124.524,167.200 124.168 C 167.200 123.812,167.481 122.929,167.824 122.207 C 168.583 120.607,167.547 117.900,165.524 116.198 L 164.339 115.200 117.269 115.169 C 69.809 115.137,61.756 114.970,53.000 113.838 C 46.788 113.034,44.020 113.030,42.887 113.824 M247.722 113.799 C 245.910 115.069,245.240 123.336,246.900 123.951 C 249.294 124.838,252.232 125.672,255.456 126.380 C 260.411 127.469,263.189 128.293,263.903 128.886 C 264.642 129.499,264.354 141.372,263.382 150.400 C 263.062 153.370,262.617 160.030,262.394 165.200 C 262.171 170.370,261.797 176.400,261.564 178.600 C 260.856 185.284,260.432 190.645,259.999 198.400 C 259.771 202.470,259.409 207.240,259.194 209.000 C 258.400 215.501,258.021 219.992,257.611 227.800 C 257.198 235.646,256.735 240.107,255.979 243.506 C 255.771 244.444,255.589 246.334,255.577 247.706 C 255.554 250.146,255.032 255.165,253.840 264.400 C 253.514 266.930,253.236 269.864,253.223 270.920 C 253.199 272.936,251.419 275.228,249.400 275.847 C 248.960 275.982,248.240 276.417,247.800 276.815 C 247.172 277.383,243.023 279.371,240.200 280.457 C 237.969 281.316,235.596 283.430,235.374 284.755 C 235.241 285.550,234.957 286.777,234.742 287.481 C 233.270 292.302,233.961 292.897,240.424 292.374 C 252.533 291.396,260.268 291.261,306.126 291.231 C 337.787 291.211,354.311 291.062,354.813 290.793 C 355.753 290.290,356.182 288.704,357.002 282.703 C 357.355 280.119,357.904 277.059,358.223 275.903 C 358.541 274.746,359.091 272.720,359.446 271.400 C 359.801 270.080,360.336 268.523,360.635 267.941 C 362.248 264.797,361.984 260.804,360.118 260.129 C 359.723 259.987,358.929 259.544,358.353 259.145 C 355.937 257.474,351.512 256.235,350.888 257.055 C 349.958 258.276,348.843 261.089,348.215 263.797 C 347.891 265.195,347.261 266.937,346.814 267.669 C 346.368 268.401,346.002 269.247,346.001 269.548 C 346.000 270.156,344.275 273.070,342.935 274.729 L 342.070 275.800 309.493 275.911 C 278.752 276.016,276.871 275.982,276.105 275.311 C 274.944 274.294,275.599 250.487,277.187 236.000 C 277.392 234.130,277.748 227.777,277.979 221.882 C 278.418 210.669,278.655 209.334,280.378 208.412 C 280.883 208.141,290.222 208.000,307.600 208.000 C 332.344 208.000,334.750 208.084,335.897 208.985 C 336.251 209.263,336.884 214.227,337.143 218.756 C 337.535 225.607,338.031 226.261,342.519 225.844 C 347.180 225.410,347.317 225.184,347.999 216.800 C 348.240 213.830,348.717 210.140,349.058 208.600 C 349.400 207.060,349.911 204.000,350.195 201.800 C 350.478 199.600,350.977 197.076,351.305 196.192 C 351.632 195.307,352.030 193.597,352.190 192.392 C 352.350 191.186,352.944 189.030,353.510 187.600 C 355.645 182.213,354.874 180.817,349.760 180.806 C 345.213 180.796,344.560 181.177,343.603 184.391 C 343.158 185.885,342.543 187.315,342.236 187.570 C 341.929 187.825,341.557 188.520,341.408 189.116 C 341.260 189.712,340.657 190.945,340.069 191.856 C 339.481 192.767,338.800 193.847,338.557 194.256 C 338.132 194.969,336.910 195.005,309.508 195.108 L 280.903 195.215 280.430 194.072 C 279.929 192.864,280.396 182.206,281.186 176.800 C 281.984 171.339,282.399 167.222,282.654 162.206 C 282.800 159.350,283.140 156.470,283.410 155.806 C 283.680 155.143,284.120 151.630,284.388 148.000 C 284.656 144.370,285.051 140.050,285.266 138.400 C 286.297 130.506,286.441 129.787,287.088 129.300 C 288.179 128.480,349.218 128.582,350.813 129.407 C 352.258 130.154,353.200 131.891,353.200 133.806 C 353.200 134.602,353.355 135.556,353.544 135.926 C 353.857 136.541,353.429 140.502,352.430 146.214 C 351.996 148.696,352.271 150.303,353.217 150.809 C 354.149 151.308,359.636 150.371,361.765 149.350 C 363.716 148.414,363.774 148.299,365.984 141.000 C 367.549 135.833,369.092 131.776,371.613 126.200 C 373.678 121.633,373.736 121.207,372.630 118.707 C 370.921 114.843,376.013 115.204,322.811 115.169 C 275.408 115.137,267.355 114.970,258.600 113.838 C 252.392 113.035,248.832 113.022,247.722 113.799 M51.200 114.724 C 52.836 115.325,58.052 115.397,108.399 115.509 L 163.799 115.632 165.258 117.056 C 167.511 119.257,167.548 123.853,165.335 126.531 C 164.821 127.153,164.400 128.189,164.400 128.833 C 164.400 129.580,164.043 130.316,163.416 130.861 C 162.756 131.435,162.345 132.323,162.169 133.558 C 162.024 134.571,161.560 135.973,161.136 136.674 C 160.694 137.406,160.222 139.244,160.025 140.996 C 159.809 142.922,159.430 144.325,158.994 144.806 C 158.616 145.225,158.185 146.160,158.038 146.884 C 157.798 148.065,157.566 148.250,155.785 148.690 C 154.693 148.960,153.440 149.353,153.000 149.564 C 152.560 149.774,151.165 150.062,149.900 150.202 L 147.600 150.458 147.600 148.323 C 147.600 146.953,147.886 145.654,148.399 144.697 C 149.046 143.491,149.218 142.308,149.299 138.503 L 149.400 133.800 147.977 131.400 C 145.859 127.828,148.114 128.048,113.400 128.028 C 79.695 128.009,81.413 127.908,80.783 129.942 C 80.534 130.744,80.098 131.940,79.814 132.600 C 79.276 133.850,78.402 143.510,78.398 148.259 C 78.396 149.826,78.155 151.460,77.835 152.073 C 76.953 153.763,76.826 154.847,76.407 164.233 C 76.154 169.884,75.807 173.647,75.443 174.678 C 74.251 178.055,73.632 193.329,74.610 195.220 L 75.221 196.400 103.117 196.400 C 128.939 196.400,131.106 196.348,132.267 195.700 C 133.948 194.762,135.478 192.847,136.215 190.756 C 136.549 189.812,137.073 188.761,137.380 188.420 C 137.688 188.079,138.166 186.900,138.442 185.800 C 138.718 184.700,139.178 183.566,139.463 183.280 C 139.749 182.994,140.140 182.479,140.332 182.136 C 140.686 181.503,147.079 181.231,148.013 181.808 C 148.736 182.255,148.440 184.906,147.562 185.840 C 146.901 186.544,146.661 187.498,146.423 190.367 C 146.233 192.669,145.900 194.258,145.515 194.701 C 144.850 195.466,144.512 197.396,144.019 203.242 C 143.809 205.729,143.453 207.452,143.010 208.129 C 142.478 208.940,142.228 210.790,141.891 216.398 L 141.458 223.623 140.182 224.411 C 138.863 225.226,134.269 225.559,133.843 224.870 C 133.731 224.689,133.520 222.844,133.373 220.770 C 133.209 218.444,132.866 216.617,132.478 216.000 C 132.088 215.380,131.781 213.740,131.673 211.687 C 131.526 208.893,131.367 208.282,130.660 207.787 C 129.678 207.099,76.468 206.890,74.687 207.567 C 72.467 208.411,72.234 209.887,71.613 227.049 C 71.363 233.957,71.061 237.707,70.646 239.049 C 69.720 242.044,69.003 274.221,69.834 275.500 L 70.418 276.400 103.636 276.400 C 138.271 276.400,138.110 276.408,138.562 274.611 C 138.701 274.055,139.002 273.600,139.230 273.600 C 139.458 273.600,140.018 272.745,140.474 271.700 C 140.931 270.655,141.615 269.502,141.995 269.137 C 142.376 268.772,142.805 267.583,142.950 266.493 C 143.108 265.302,143.523 264.231,143.992 263.807 C 144.509 263.339,144.859 262.327,145.032 260.800 C 145.418 257.384,145.435 257.371,148.795 257.971 C 151.001 258.366,151.929 258.749,152.842 259.641 C 153.494 260.279,154.268 260.800,154.563 260.800 C 155.843 260.800,155.583 268.072,154.251 269.544 C 153.866 269.969,153.393 271.434,153.200 272.800 C 153.003 274.195,152.535 275.630,152.133 276.074 C 151.583 276.682,151.309 278.096,150.953 282.179 C 150.490 287.474,150.019 289.003,148.452 290.300 C 147.976 290.694,137.091 290.807,97.224 290.835 C 69.381 290.854,43.000 291.005,38.600 291.170 C 29.842 291.499,29.466 291.417,29.803 289.251 C 29.893 288.673,30.074 287.516,30.205 286.680 C 30.544 284.520,33.784 281.253,36.103 280.733 C 37.036 280.523,38.160 280.022,38.600 279.619 C 39.040 279.216,39.996 278.760,40.724 278.606 C 41.452 278.452,42.584 277.803,43.238 277.163 C 43.892 276.523,44.646 275.999,44.914 275.998 C 46.345 275.992,48.400 273.254,48.400 271.352 C 48.400 270.281,48.646 269.190,48.969 268.831 C 49.380 268.376,49.659 266.141,49.972 260.800 C 50.614 249.837,50.726 248.767,51.435 246.800 C 51.920 245.454,52.175 242.477,52.446 235.000 C 52.681 228.518,53.012 224.296,53.385 223.000 C 54.095 220.534,54.710 213.243,54.988 204.000 C 55.123 199.493,55.399 196.429,55.764 195.395 C 56.370 193.677,56.613 190.223,57.213 174.800 C 57.462 168.399,57.787 164.445,58.150 163.400 C 58.760 161.645,59.912 131.297,59.440 129.417 C 58.999 127.660,56.635 126.478,52.657 126.028 C 50.708 125.807,48.882 125.434,48.600 125.200 C 48.317 124.965,46.582 124.459,44.743 124.075 L 41.400 123.376 41.434 119.955 C 41.461 117.172,41.610 116.376,42.234 115.695 C 42.655 115.234,43.214 114.594,43.475 114.273 C 44.089 113.516,48.634 113.781,51.200 114.724 M257.000 114.734 C 258.461 115.342,263.404 115.410,314.079 115.516 L 369.558 115.632 370.721 117.116 C 372.832 119.811,373.052 123.161,371.228 124.860 C 370.828 125.232,370.376 126.226,370.223 127.069 C 370.070 127.911,369.526 129.230,369.014 130.000 C 368.502 130.770,367.966 132.237,367.823 133.260 C 367.680 134.283,367.211 135.526,366.781 136.021 C 366.352 136.517,365.999 137.030,365.998 137.161 C 365.982 138.753,365.068 142.241,364.466 143.007 C 364.041 143.547,363.571 144.971,363.421 146.171 L 363.148 148.354 360.874 148.790 C 359.623 149.030,357.880 149.416,357.000 149.648 C 353.397 150.596,353.318 150.588,353.122 149.249 C 352.874 147.563,353.476 142.853,354.201 140.797 C 354.881 138.870,355.001 135.371,354.400 135.000 C 354.180 134.864,354.000 134.216,354.000 133.560 C 354.000 132.004,352.638 129.364,351.499 128.713 C 350.329 128.045,289.805 127.714,287.600 128.363 C 285.155 129.084,284.784 130.618,284.017 143.200 C 283.784 147.020,283.389 150.089,282.988 151.196 C 282.519 152.492,282.251 155.277,282.025 161.196 C 281.791 167.361,281.558 169.698,281.090 170.600 C 279.664 173.345,279.045 195.275,280.374 195.986 C 280.886 196.260,290.507 196.400,308.813 196.400 C 339.641 196.400,338.652 196.485,339.797 193.746 C 340.106 193.006,340.541 192.400,340.764 192.400 C 340.986 192.400,341.389 191.635,341.660 190.700 C 341.930 189.765,342.568 188.491,343.076 187.869 C 343.639 187.180,344.000 186.207,344.000 185.376 C 344.000 182.609,345.648 181.506,349.731 181.540 C 351.653 181.556,353.400 181.677,353.613 181.808 C 354.297 182.231,354.045 184.900,353.239 185.774 C 352.771 186.281,352.311 187.690,352.047 189.421 C 351.811 190.973,351.354 192.773,351.031 193.421 C 350.323 194.846,349.607 199.055,349.603 201.815 C 349.601 203.052,349.285 204.443,348.786 205.415 C 348.127 206.696,347.897 208.265,347.586 213.600 C 347.139 221.273,347.087 221.561,345.779 223.633 L 344.790 225.200 342.075 225.200 C 338.938 225.200,338.400 224.517,338.400 220.531 C 338.400 219.425,338.224 217.998,338.010 217.360 C 337.795 216.722,337.456 214.518,337.257 212.461 C 337.008 209.899,336.686 208.514,336.233 208.061 C 335.273 207.101,282.075 206.824,279.816 207.767 C 277.804 208.608,277.664 209.277,277.401 219.280 C 277.181 227.649,277.038 229.252,275.987 235.100 C 275.759 236.365,275.418 245.432,275.228 255.249 C 275.004 266.825,274.728 273.387,274.443 273.921 C 274.071 274.614,274.167 274.874,275.055 275.572 C 276.101 276.394,276.338 276.400,309.165 276.400 C 343.871 276.400,344.000 276.394,344.000 274.735 C 344.000 274.504,344.450 273.781,345.000 273.127 C 345.550 272.473,346.111 271.457,346.246 270.869 C 346.381 270.281,346.905 269.170,347.409 268.400 C 347.914 267.630,348.450 266.190,348.602 265.200 C 348.753 264.210,349.115 263.024,349.406 262.564 C 349.697 262.104,350.129 261.024,350.367 260.164 C 351.079 257.589,351.184 257.519,353.576 258.032 C 354.739 258.282,356.306 258.903,357.059 259.414 C 357.811 259.925,358.939 260.455,359.566 260.592 C 361.458 261.008,361.673 264.823,359.939 267.200 C 359.537 267.750,359.054 269.342,358.865 270.739 C 358.676 272.135,358.326 273.399,358.086 273.547 C 357.287 274.041,356.877 275.819,356.592 280.028 C 356.437 282.323,356.071 284.740,355.778 285.400 C 355.486 286.060,355.038 287.410,354.782 288.400 C 354.526 289.390,354.111 290.332,353.859 290.494 C 353.606 290.656,330.630 290.806,302.800 290.829 C 274.970 290.852,248.600 291.003,244.200 291.166 C 234.872 291.511,235.023 291.558,235.380 288.421 C 235.846 284.317,235.967 284.033,237.612 283.194 C 238.462 282.760,239.316 282.122,239.510 281.776 C 239.703 281.429,240.658 280.967,241.631 280.749 C 242.604 280.530,243.760 280.022,244.200 279.619 C 244.640 279.216,245.566 278.767,246.259 278.621 C 246.951 278.474,247.847 277.990,248.250 277.544 C 248.654 277.099,249.527 276.497,250.192 276.207 C 252.745 275.092,253.458 273.957,253.755 270.538 C 253.905 268.812,254.280 266.590,254.588 265.600 C 255.099 263.956,255.540 259.399,256.232 248.620 C 256.382 246.265,256.718 244.286,257.054 243.773 C 257.481 243.123,257.729 240.127,258.052 231.753 C 258.312 225.032,258.697 219.805,259.022 218.600 C 259.747 215.911,260.326 208.976,260.577 199.968 C 260.715 195.009,260.968 192.081,261.337 191.168 C 261.867 189.858,262.399 181.501,263.028 164.600 C 263.173 160.716,263.494 157.511,263.846 156.448 C 264.466 154.573,265.445 132.141,265.011 129.755 C 264.676 127.913,263.674 127.256,260.162 126.575 C 258.423 126.237,256.100 125.668,255.000 125.309 C 253.900 124.951,251.650 124.372,250.000 124.023 L 247.000 123.387 247.000 119.458 C 247.000 113.646,250.458 112.013,257.000 114.734 M203.200 270.022 C 201.990 270.484,200.151 270.995,199.114 271.158 C 197.946 271.341,196.854 271.824,196.245 272.426 C 195.704 272.962,194.700 273.825,194.014 274.344 C 191.578 276.189,190.214 279.657,190.206 284.029 C 190.198 288.804,190.768 290.016,193.999 292.101 L 196.323 293.600 201.661 293.599 C 206.144 293.597,207.194 293.479,208.210 292.859 C 208.875 292.454,210.113 291.893,210.962 291.613 C 215.409 290.145,217.568 285.766,217.592 278.163 C 217.613 271.647,210.090 267.392,203.200 270.022 M211.304 271.118 C 216.336 272.658,216.719 273.485,216.494 282.317 L 216.400 286.034 214.062 288.401 C 212.302 290.184,211.308 290.862,210.034 291.148 C 209.104 291.357,208.011 291.828,207.605 292.195 C 206.350 293.331,196.796 293.292,195.538 292.146 C 195.022 291.676,194.192 291.168,193.693 291.017 C 193.194 290.866,192.515 290.170,192.183 289.471 C 191.850 288.772,191.324 287.758,191.012 287.219 C 190.255 285.908,190.637 281.442,191.651 279.753 C 192.063 279.067,192.401 278.167,192.402 277.753 C 192.403 277.339,192.988 276.432,193.702 275.738 C 197.405 272.138,197.551 272.045,199.965 271.772 C 201.252 271.627,203.002 271.175,203.853 270.769 C 205.702 269.886,207.561 269.973,211.304 271.118 M0.000 395.800 C 0.000 396.369,0.231 396.800,0.536 396.800 C 0.830 396.800,1.415 397.518,1.836 398.395 C 2.256 399.273,2.825 399.993,3.100 399.995 C 3.720 400.001,3.760 398.946,3.155 398.572 C 2.910 398.421,2.361 397.510,1.936 396.548 C 1.082 394.617,0.000 394.199,0.000 395.800 " stroke="none" fill="#847c84" fill-rule="evenodd"></path><path id="path3" d="M107.500 2.300 C 159.035 2.356,243.365 2.356,294.900 2.300 C 346.435 2.244,304.270 2.198,201.200 2.198 C 98.130 2.198,55.965 2.244,107.500 2.300 M9.630 3.321 C 6.899 4.427,2.711 8.239,1.843 10.408 C 1.493 11.284,0.935 12.000,0.603 12.000 C 0.271 12.000,0.000 12.180,0.000 12.400 C 0.000 13.486,1.313 12.602,1.968 11.075 C 3.476 7.557,7.200 4.491,11.800 2.979 C 12.680 2.690,13.040 2.451,12.600 2.448 C 12.160 2.445,10.824 2.838,9.630 3.321 M390.200 2.783 C 392.516 3.365,395.883 5.247,397.415 6.816 C 398.902 8.338,400.000 8.841,400.000 8.000 C 400.000 7.780,399.675 7.600,399.278 7.600 C 398.882 7.600,397.937 6.950,397.178 6.154 C 395.658 4.560,391.400 2.377,389.935 2.441 C 389.146 2.476,389.187 2.529,390.200 2.783 M42.160 114.160 C 41.412 114.908,40.801 115.763,40.801 116.060 C 40.802 116.357,41.148 116.035,41.569 115.344 C 42.625 113.612,43.005 113.433,46.200 113.165 L 49.000 112.929 46.260 112.865 C 43.640 112.803,43.460 112.860,42.160 114.160 M247.735 113.199 C 246.876 113.546,246.111 115.045,246.563 115.497 C 246.694 115.627,246.800 115.455,246.800 115.116 C 246.800 113.955,248.094 113.402,251.359 113.168 L 254.600 112.935 251.600 112.893 C 249.950 112.870,248.211 113.008,247.735 113.199 M52.200 113.622 C 53.740 113.822,56.080 114.199,57.400 114.459 C 59.146 114.804,74.067 114.977,112.191 115.096 L 164.581 115.260 166.171 116.930 C 167.615 118.446,167.692 118.482,167.009 117.324 C 165.422 114.634,169.201 114.816,111.800 114.660 C 77.123 114.566,59.267 114.379,58.200 114.098 C 57.320 113.866,54.980 113.583,53.000 113.468 C 49.466 113.262,49.452 113.265,52.200 113.622 M257.800 113.625 C 259.340 113.824,261.680 114.199,263.000 114.459 C 264.746 114.803,279.616 114.976,317.600 115.092 C 362.816 115.230,369.922 115.331,370.713 115.843 C 371.884 116.603,373.696 120.648,373.365 121.764 C 373.132 122.552,373.149 122.558,373.673 121.874 C 374.483 120.813,372.144 115.913,370.520 115.270 C 369.727 114.956,354.228 114.784,317.400 114.681 C 281.618 114.581,264.963 114.401,264.000 114.103 C 263.230 113.865,260.890 113.579,258.800 113.467 C 255.195 113.275,255.144 113.283,257.800 113.625 M245.852 117.300 C 245.080 120.180,245.737 124.400,246.956 124.400 C 247.175 124.400,247.024 124.160,246.623 123.866 C 245.986 123.401,245.916 122.888,246.075 119.866 C 246.267 116.196,246.238 115.859,245.852 117.300 M167.600 118.937 C 167.600 119.111,167.794 119.615,168.031 120.057 C 168.357 120.667,168.308 121.185,167.831 122.192 C 167.484 122.923,167.208 123.854,167.218 124.260 C 167.227 124.667,167.509 124.280,167.844 123.400 C 168.878 120.682,168.899 120.477,168.240 119.536 C 167.888 119.033,167.600 118.764,167.600 118.937 M39.966 120.400 C 39.285 122.142,40.914 124.821,42.600 124.733 C 43.331 124.695,43.326 124.677,42.542 124.523 C 41.246 124.270,40.474 123.179,40.330 121.400 C 40.258 120.520,40.095 120.070,39.966 120.400 M372.832 123.160 C 372.814 123.468,372.362 124.638,371.827 125.760 C 369.972 129.647,368.400 133.292,368.400 133.704 C 368.400 134.253,370.219 130.819,370.588 129.573 C 370.747 129.038,371.414 127.475,372.072 126.100 C 372.729 124.725,373.176 123.375,373.065 123.100 C 372.918 122.737,372.854 122.754,372.832 123.160 M250.352 125.418 C 251.976 125.958,253.686 126.385,254.152 126.366 C 254.619 126.347,254.100 126.102,253.000 125.821 C 251.900 125.540,250.493 125.105,249.874 124.855 C 249.255 124.605,248.445 124.408,248.074 124.418 C 247.703 124.428,248.729 124.878,250.352 125.418 M44.676 125.387 C 45.378 125.715,46.728 126.077,47.676 126.191 L 49.400 126.399 47.400 125.834 C 43.805 124.819,43.270 124.731,44.676 125.387 M166.093 126.806 C 164.846 128.973,164.978 129.384,166.243 127.272 C 166.812 126.322,167.213 125.479,167.133 125.399 C 167.052 125.319,166.585 125.952,166.093 126.806 M53.600 127.389 C 56.911 128.373,57.413 128.435,55.600 127.637 C 54.610 127.201,53.350 126.847,52.800 126.849 C 52.124 126.852,52.383 127.027,53.600 127.389 M259.000 127.584 C 260.100 128.033,261.365 128.399,261.811 128.400 C 262.257 128.400,263.067 128.697,263.611 129.059 C 264.530 129.672,264.556 129.672,263.985 129.059 C 263.647 128.696,262.387 128.119,261.185 127.778 C 257.679 126.781,256.849 126.708,259.000 127.584 M348.933 129.188 C 352.236 129.827,353.430 132.827,352.999 139.400 L 352.815 142.200 353.354 139.400 C 353.678 137.718,353.755 136.331,353.547 135.926 C 353.356 135.556,353.200 134.602,353.200 133.806 C 353.200 130.948,351.116 128.739,348.520 128.846 C 347.588 128.884,347.657 128.942,348.933 129.188 M145.709 130.305 C 147.485 132.159,148.386 136.004,147.747 139.000 C 147.465 140.320,147.250 142.210,147.268 143.200 C 147.300 144.902,147.319 144.869,147.621 142.600 C 147.796 141.280,148.115 139.435,148.328 138.499 C 148.996 135.568,147.173 130.136,145.277 129.408 C 144.861 129.249,145.027 129.594,145.709 130.305 M164.832 129.622 C 164.814 129.965,164.350 130.855,163.800 131.600 C 163.250 132.345,162.818 133.415,162.841 133.978 C 162.879 134.921,162.905 134.905,163.176 133.772 C 163.337 133.097,163.880 131.989,164.381 131.311 C 164.882 130.633,165.196 129.836,165.078 129.539 C 164.917 129.135,164.855 129.156,164.832 129.622 M286.644 129.530 C 286.397 129.929,285.571 135.506,285.390 138.000 L 285.259 139.800 285.613 138.000 C 285.808 137.010,286.158 134.850,286.392 133.200 C 286.625 131.550,286.896 129.975,286.995 129.700 C 287.197 129.139,286.957 129.023,286.644 129.530 M58.901 131.400 C 58.905 132.280,58.987 132.593,59.083 132.095 C 59.179 131.598,59.175 130.878,59.075 130.495 C 58.975 130.113,58.896 130.520,58.901 131.400 M80.623 133.869 C 80.488 135.371,80.202 137.575,79.988 138.767 C 79.508 141.448,79.541 143.155,80.036 141.200 C 80.480 139.444,81.288 131.555,81.048 131.315 C 80.950 131.217,80.759 132.366,80.623 133.869 M264.134 136.000 C 264.134 137.650,264.205 138.325,264.291 137.500 C 264.378 136.675,264.378 135.325,264.291 134.500 C 264.205 133.675,264.134 134.350,264.134 136.000 M367.054 137.762 C 366.428 139.403,366.010 140.982,366.126 141.273 C 366.277 141.651,366.346 141.621,366.368 141.169 C 366.386 140.822,366.859 139.409,367.420 138.028 C 367.981 136.648,368.384 135.352,368.316 135.149 C 368.248 134.945,367.680 136.121,367.054 137.762 M161.501 138.486 C 161.116 139.393,160.868 140.201,160.949 140.282 C 161.175 140.508,162.471 137.612,162.327 137.200 C 162.257 137.001,161.885 137.579,161.501 138.486 M58.520 141.200 C 58.520 142.410,58.595 142.905,58.687 142.300 C 58.778 141.695,58.778 140.705,58.687 140.100 C 58.595 139.495,58.520 139.990,58.520 141.200 M263.673 142.400 C 263.631 144.270,263.434 146.430,263.237 147.200 C 262.868 148.636,262.256 158.283,262.553 157.973 C 262.910 157.599,264.045 143.658,263.903 141.400 C 263.772 139.321,263.741 139.455,263.673 142.400 M284.924 142.200 C 284.926 143.520,285.001 144.012,285.090 143.293 C 285.179 142.574,285.177 141.494,285.086 140.893 C 284.995 140.292,284.922 140.880,284.924 142.200 M160.501 142.200 C 160.505 143.080,160.587 143.393,160.683 142.895 C 160.779 142.398,160.775 141.678,160.675 141.295 C 160.575 140.913,160.496 141.320,160.501 142.200 M365.118 143.707 C 364.743 144.638,364.314 145.940,364.164 146.600 C 364.015 147.260,363.608 148.160,363.260 148.600 C 362.659 149.360,362.663 149.367,363.349 148.751 C 363.746 148.393,364.504 146.863,365.033 145.351 C 366.112 142.270,366.173 141.089,365.118 143.707 M79.309 144.400 C 79.309 145.390,79.387 145.795,79.482 145.300 C 79.578 144.805,79.578 143.995,79.482 143.500 C 79.387 143.005,79.309 143.410,79.309 144.400 M352.509 144.400 C 352.509 145.390,352.587 145.795,352.682 145.300 C 352.778 144.805,352.778 143.995,352.682 143.500 C 352.587 143.005,352.509 143.410,352.509 144.400 M58.068 146.600 C 58.020 148.360,57.810 150.520,57.600 151.400 C 57.391 152.280,57.146 155.430,57.056 158.400 C 56.921 162.859,56.944 163.173,57.190 160.200 C 57.353 158.220,57.702 154.791,57.965 152.579 C 58.227 150.368,58.377 147.398,58.298 145.979 L 58.154 143.400 58.068 146.600 M159.433 146.016 C 159.038 147.115,158.334 148.281,157.868 148.607 C 157.403 148.933,157.229 149.200,157.482 149.200 C 158.143 149.200,159.478 147.383,160.017 145.748 C 160.742 143.552,160.235 143.785,159.433 146.016 M146.909 146.800 C 146.909 147.790,146.987 148.195,147.082 147.700 C 147.178 147.205,147.178 146.395,147.082 145.900 C 146.987 145.405,146.909 145.810,146.909 146.800 M284.520 148.000 C 284.520 149.210,284.595 149.705,284.687 149.100 C 284.778 148.495,284.778 147.505,284.687 146.900 C 284.595 146.295,284.520 146.790,284.520 148.000 M351.856 147.319 C 351.504 148.723,352.129 150.462,353.219 151.113 L 354.200 151.698 353.233 150.897 C 352.466 150.261,352.267 149.715,352.267 148.248 C 352.267 146.169,352.189 145.993,351.856 147.319 M78.924 149.800 C 78.926 151.120,79.001 151.612,79.090 150.893 C 79.179 150.174,79.177 149.094,79.086 148.493 C 78.995 147.892,78.922 148.480,78.924 149.800 M361.053 149.658 C 360.643 149.897,359.023 150.340,357.453 150.643 L 354.600 151.193 357.310 150.985 C 358.985 150.855,360.514 150.475,361.310 149.989 C 362.634 149.182,362.397 148.877,361.053 149.658 M154.600 150.106 C 154.160 150.371,152.720 150.710,151.400 150.859 L 149.000 151.131 151.705 151.046 C 153.633 150.986,154.606 150.766,155.091 150.281 C 155.884 149.487,155.723 149.430,154.600 150.106 M284.076 152.313 C 284.034 153.475,283.730 155.072,283.400 155.862 C 283.056 156.686,282.825 158.342,282.859 159.749 L 282.917 162.200 283.183 159.400 C 283.329 157.860,283.672 156.190,283.944 155.690 C 284.234 155.157,284.379 153.828,284.295 152.490 L 284.151 150.200 284.076 152.313 M78.470 154.200 C 78.431 155.300,78.133 157.460,77.807 159.000 C 77.310 161.348,76.985 165.083,77.389 163.800 C 77.950 162.024,78.830 155.445,78.701 154.000 L 78.540 152.200 78.470 154.200 M262.159 164.000 C 262.159 167.190,262.221 168.495,262.297 166.900 C 262.373 165.305,262.373 162.695,262.297 161.100 C 262.221 159.505,262.159 160.810,262.159 164.000 M282.537 165.800 C 282.539 167.560,282.609 168.230,282.693 167.289 C 282.778 166.349,282.777 164.909,282.691 164.089 C 282.605 163.270,282.536 164.040,282.537 165.800 M76.937 167.400 C 76.939 169.160,77.009 169.830,77.093 168.889 C 77.178 167.949,77.177 166.509,77.091 165.689 C 77.005 164.870,76.936 165.640,76.937 167.400 M56.550 169.000 C 56.551 171.420,56.616 172.358,56.696 171.085 C 56.776 169.812,56.775 167.832,56.694 166.685 C 56.614 165.538,56.549 166.580,56.550 169.000 M281.819 171.869 C 281.681 173.371,281.401 175.680,281.197 177.000 C 280.782 179.678,280.313 186.424,280.585 185.800 C 280.747 185.429,281.045 182.839,282.033 173.243 C 282.245 171.177,282.341 169.408,282.245 169.312 C 282.149 169.216,281.957 170.366,281.819 171.869 M76.514 173.800 C 76.517 174.900,76.595 175.303,76.687 174.695 C 76.779 174.086,76.777 173.186,76.682 172.695 C 76.587 172.203,76.511 172.700,76.514 173.800 M261.440 176.400 C 261.288 178.270,261.004 180.610,260.808 181.600 C 260.444 183.439,259.908 193.725,260.214 193.000 C 260.307 192.780,260.565 190.260,260.787 187.400 C 261.009 184.540,261.383 180.340,261.618 178.066 C 261.852 175.793,261.970 173.723,261.880 173.466 C 261.790 173.210,261.592 174.530,261.440 176.400 M56.134 177.600 C 56.134 179.250,56.205 179.925,56.291 179.100 C 56.378 178.275,56.378 176.925,56.291 176.100 C 56.205 175.275,56.134 175.950,56.134 177.600 M76.062 177.800 C 76.025 178.900,75.832 180.430,75.633 181.200 C 75.433 181.970,75.178 184.310,75.065 186.400 C 74.883 189.795,74.899 189.923,75.216 187.600 C 75.412 186.170,75.776 183.560,76.027 181.800 C 76.277 180.040,76.402 177.970,76.305 177.200 C 76.158 176.039,76.117 176.141,76.062 177.800 M142.700 180.682 C 143.195 180.778,144.005 180.778,144.500 180.682 C 144.995 180.587,144.590 180.509,143.600 180.509 C 142.610 180.509,142.205 180.587,142.700 180.682 M348.300 180.682 C 348.795 180.778,349.605 180.778,350.100 180.682 C 350.595 180.587,350.190 180.509,349.200 180.509 C 348.210 180.509,347.805 180.587,348.300 180.682 M55.069 188.736 C 54.668 193.211,54.443 196.976,54.569 197.103 C 54.696 197.230,54.800 196.975,54.800 196.538 C 54.800 196.100,55.081 192.917,55.425 189.465 C 55.769 186.013,55.994 182.606,55.925 181.894 C 55.856 181.182,55.471 184.261,55.069 188.736 M138.982 181.782 C 138.442 182.322,138.004 183.087,138.009 183.482 C 138.015 183.951,138.232 183.767,138.635 182.950 C 138.974 182.262,139.645 181.509,140.126 181.277 C 140.607 181.044,140.767 180.842,140.482 180.827 C 140.197 180.812,139.522 181.242,138.982 181.782 M147.900 181.248 C 148.838 181.518,149.213 181.870,149.246 182.511 C 149.287 183.294,149.316 183.307,149.490 182.626 C 149.721 181.721,148.638 180.783,147.424 180.836 C 146.873 180.860,147.031 180.997,147.900 181.248 M344.400 181.600 C 343.960 182.040,343.614 182.715,343.632 183.100 C 343.652 183.551,343.803 183.417,344.057 182.725 C 344.273 182.133,344.933 181.473,345.525 181.257 C 346.217 181.003,346.351 180.852,345.900 180.832 C 345.515 180.814,344.840 181.160,344.400 181.600 M148.044 187.044 C 147.531 188.475,147.189 189.723,147.284 189.817 C 147.378 189.912,147.871 188.814,148.378 187.378 C 148.885 185.941,149.227 184.694,149.138 184.605 C 149.050 184.516,148.557 185.614,148.044 187.044 M136.679 186.774 C 135.704 188.425,135.853 188.851,136.857 187.283 C 137.320 186.559,137.623 185.890,137.529 185.796 C 137.435 185.702,137.052 186.142,136.679 186.774 M342.261 186.667 C 341.854 187.210,341.615 187.748,341.729 187.862 C 341.843 187.976,342.245 187.598,342.622 187.022 C 343.512 185.664,343.223 185.380,342.261 186.667 M353.433 187.633 C 353.067 188.550,352.842 189.375,352.933 189.467 C 353.025 189.558,353.400 188.883,353.767 187.967 C 354.133 187.050,354.358 186.225,354.267 186.133 C 354.175 186.042,353.800 186.717,353.433 187.633 M280.120 191.600 C 280.120 192.810,280.195 193.305,280.287 192.700 C 280.378 192.095,280.378 191.105,280.287 190.500 C 280.195 189.895,280.120 190.390,280.120 191.600 M340.084 191.099 C 338.888 192.932,339.134 193.165,340.367 191.367 C 340.888 190.605,341.244 189.918,341.158 189.839 C 341.071 189.761,340.588 190.328,340.084 191.099 M146.909 192.000 C 146.909 192.990,146.987 193.395,147.082 192.900 C 147.178 192.405,147.178 191.595,147.082 191.100 C 146.987 190.605,146.909 191.010,146.909 192.000 M74.493 192.000 C 74.493 192.770,74.575 193.085,74.676 192.700 C 74.776 192.315,74.776 191.685,74.676 191.300 C 74.575 190.915,74.493 191.230,74.493 192.000 M133.767 192.778 C 133.193 193.646,132.425 194.435,132.061 194.532 C 131.460 194.691,131.459 194.711,132.053 194.754 C 132.615 194.794,133.965 193.372,134.952 191.700 C 135.674 190.478,134.707 191.357,133.767 192.778 M352.060 193.237 C 352.027 193.808,351.640 195.321,351.200 196.600 C 350.760 197.879,350.408 199.212,350.418 199.563 C 350.428 199.913,350.885 198.850,351.434 197.200 C 351.983 195.550,352.362 193.750,352.276 193.200 L 352.120 192.200 352.060 193.237 M74.812 193.851 C 74.777 195.164,75.743 195.206,103.644 195.100 L 131.400 194.994 103.520 194.897 C 77.449 194.806,75.613 194.755,75.232 194.100 C 75.008 193.715,74.819 193.603,74.812 193.851 M146.252 194.900 C 146.119 195.395,146.008 196.273,146.005 196.851 C 146.002 197.429,145.730 198.549,145.400 199.338 C 145.070 200.128,144.806 201.095,144.813 201.487 C 144.835 202.640,146.279 197.975,146.543 195.900 C 146.799 193.890,146.655 193.396,146.252 194.900 M280.622 194.508 C 280.979 195.444,337.552 195.412,338.480 194.475 C 338.909 194.042,338.803 194.024,337.874 194.375 C 336.130 195.033,281.523 194.962,280.856 194.300 C 280.452 193.899,280.406 193.940,280.622 194.508 M259.740 200.000 C 259.740 201.870,259.809 202.635,259.893 201.700 C 259.977 200.765,259.977 199.235,259.893 198.300 C 259.809 197.365,259.740 198.130,259.740 200.000 M54.140 203.600 C 54.140 205.470,54.209 206.235,54.293 205.300 C 54.377 204.365,54.377 202.835,54.293 201.900 C 54.209 200.965,54.140 201.730,54.140 203.600 M350.114 203.400 C 350.117 204.500,350.195 204.903,350.287 204.295 C 350.379 203.686,350.377 202.786,350.282 202.295 C 350.187 201.803,350.111 202.300,350.114 203.400 M144.520 205.200 C 144.520 206.410,144.595 206.905,144.687 206.300 C 144.778 205.695,144.778 204.705,144.687 204.100 C 144.595 203.495,144.520 203.990,144.520 205.200 M258.995 207.100 C 258.845 208.805,258.572 210.920,258.387 211.800 C 258.203 212.680,257.962 215.830,257.852 218.800 L 257.651 224.200 258.006 219.600 C 258.201 217.070,258.542 213.830,258.764 212.400 C 259.317 208.836,259.726 204.000,259.475 204.000 C 259.361 204.000,259.145 205.395,258.995 207.100 M349.263 207.316 C 349.021 208.276,348.738 210.128,348.633 211.431 C 348.528 212.734,348.533 213.350,348.644 212.800 C 349.801 207.062,350.006 205.873,349.866 205.732 C 349.776 205.643,349.505 206.355,349.263 207.316 M143.620 209.672 C 143.368 210.843,143.081 212.610,142.983 213.600 C 142.885 214.590,143.165 213.706,143.605 211.636 C 144.045 209.565,144.331 207.798,144.241 207.708 C 144.152 207.618,143.872 208.502,143.620 209.672 M53.419 211.070 C 53.279 212.792,52.992 214.955,52.782 215.877 C 52.572 216.800,52.428 218.600,52.463 219.877 L 52.526 222.200 52.819 219.600 C 53.777 211.082,54.031 208.297,53.863 208.129 C 53.759 208.025,53.559 209.349,53.419 211.070 M74.740 208.500 C 73.727 209.326,72.815 214.984,72.627 221.602 L 72.451 227.800 72.809 222.000 C 73.176 216.058,74.173 209.791,74.894 208.900 C 75.625 207.995,129.838 208.190,130.368 209.100 C 130.592 209.485,130.781 209.611,130.788 209.380 C 130.827 208.034,130.141 208.000,102.596 208.000 C 81.395 208.000,75.217 208.111,74.740 208.500 M307.732 208.394 C 337.581 208.621,336.000 208.478,336.000 210.943 C 336.000 211.378,336.107 211.626,336.238 211.495 C 336.781 210.953,335.914 208.889,334.962 208.455 C 334.240 208.126,326.558 208.026,307.281 208.094 L 280.600 208.189 307.732 208.394 M279.196 209.700 C 278.624 210.637,278.423 211.614,278.475 213.200 L 278.548 215.400 278.696 213.273 C 278.777 212.104,279.191 210.529,279.615 209.773 C 280.595 208.028,280.251 207.968,279.196 209.700 M130.909 212.400 C 130.909 213.390,130.987 213.795,131.082 213.300 C 131.178 212.805,131.178 211.995,131.082 211.500 C 130.987 211.005,130.909 211.410,130.909 212.400 M336.493 213.600 C 336.493 214.370,336.575 214.685,336.676 214.300 C 336.776 213.915,336.776 213.285,336.676 212.900 C 336.575 212.515,336.493 212.830,336.493 213.600 M348.114 215.800 C 348.117 216.900,348.195 217.303,348.287 216.695 C 348.379 216.086,348.377 215.186,348.282 214.695 C 348.187 214.203,348.111 214.700,348.114 215.800 M131.454 217.600 C 131.882 224.895,132.687 226.446,135.989 226.344 L 137.800 226.287 135.800 226.037 C 132.755 225.655,132.916 225.999,131.651 217.200 L 131.278 214.600 131.454 217.600 M142.514 217.400 C 142.517 218.500,142.595 218.903,142.687 218.295 C 142.779 217.686,142.777 216.786,142.682 216.295 C 142.587 215.803,142.511 216.300,142.514 217.400 M278.148 219.600 C 278.148 221.910,278.214 222.855,278.295 221.700 C 278.376 220.545,278.376 218.655,278.295 217.500 C 278.214 216.345,278.148 217.290,278.148 219.600 M336.868 219.113 C 336.771 224.433,338.277 227.003,341.068 226.282 C 341.567 226.153,341.456 226.078,340.722 226.046 C 338.223 225.939,337.424 224.520,337.168 219.735 L 336.936 215.400 336.868 219.113 M347.654 220.674 C 347.588 222.713,346.987 224.430,346.106 225.100 C 345.743 225.375,345.649 225.600,345.895 225.600 C 347.195 225.600,348.342 222.358,347.890 219.963 C 347.777 219.362,347.688 219.629,347.654 220.674 M52.134 225.200 C 52.134 226.850,52.205 227.525,52.291 226.700 C 52.378 225.875,52.378 224.525,52.291 223.700 C 52.205 222.875,52.134 223.550,52.134 225.200 M142.032 223.300 C 142.014 223.685,141.640 224.360,141.200 224.800 C 140.566 225.434,140.527 225.600,141.010 225.600 C 141.663 225.600,142.546 223.769,142.245 223.039 C 142.145 222.798,142.049 222.915,142.032 223.300 M277.720 229.600 C 277.720 230.810,277.795 231.305,277.887 230.700 C 277.978 230.095,277.978 229.105,277.887 228.500 C 277.795 227.895,277.720 228.390,277.720 229.600 M257.040 232.000 C 256.888 234.090,256.603 236.610,256.407 237.600 C 255.964 239.838,255.595 244.539,255.885 244.248 C 256.301 243.833,257.776 229.511,257.488 228.690 C 257.394 228.420,257.192 229.910,257.040 232.000 M72.150 233.400 C 72.151 235.820,72.216 236.758,72.296 235.485 C 72.376 234.212,72.375 232.232,72.294 231.085 C 72.214 229.938,72.149 230.980,72.150 233.400 M51.265 237.200 C 51.214 239.070,50.911 241.680,50.592 243.000 C 50.115 244.974,49.766 249.143,50.189 247.800 C 50.848 245.711,51.625 239.224,51.506 236.800 L 51.359 233.800 51.265 237.200 M277.200 236.103 C 277.200 237.259,277.041 238.761,276.846 239.441 C 276.651 240.121,276.391 243.900,276.269 247.839 L 276.047 255.000 276.583 249.600 C 277.282 242.554,277.755 234.000,277.445 234.000 C 277.310 234.000,277.200 234.946,277.200 236.103 M71.664 241.400 C 71.618 243.160,71.419 245.320,71.221 246.200 C 71.023 247.080,70.780 250.770,70.681 254.400 C 70.549 259.223,70.583 260.031,70.808 257.400 C 71.748 246.423,72.023 242.071,71.893 240.240 C 71.784 238.711,71.727 239.002,71.664 241.400 M255.340 248.000 C 255.340 249.870,255.409 250.635,255.493 249.700 C 255.577 248.765,255.577 247.235,255.493 246.300 C 255.409 245.365,255.340 246.130,255.340 248.000 M49.737 251.800 C 49.739 253.560,49.809 254.230,49.893 253.289 C 49.978 252.349,49.977 250.909,49.891 250.089 C 49.805 249.270,49.736 250.040,49.737 251.800 M254.631 255.600 C 254.450 257.470,254.166 259.360,254.000 259.800 C 253.834 260.240,253.600 262.310,253.480 264.400 L 253.262 268.200 253.816 264.200 C 255.019 255.518,255.218 253.770,255.092 253.000 C 255.019 252.560,254.812 253.730,254.631 255.600 M275.763 262.000 C 275.763 265.630,275.823 267.115,275.898 265.300 C 275.972 263.485,275.972 260.515,275.898 258.700 C 275.823 256.885,275.763 258.370,275.763 262.000 M145.043 256.633 C 144.650 257.658,144.762 257.805,145.338 257.017 C 145.867 256.294,146.494 256.300,148.663 257.052 C 149.317 257.279,149.310 257.235,148.600 256.667 C 147.548 255.823,145.361 255.802,145.043 256.633 M349.631 258.464 C 348.954 259.819,348.408 261.214,348.419 261.564 C 348.429 261.914,348.834 261.273,349.319 260.141 C 350.942 256.349,351.183 256.146,353.138 256.929 C 355.368 257.821,355.817 257.734,353.800 256.800 C 351.282 255.634,350.986 255.752,349.631 258.464 M49.019 258.263 C 48.887 259.329,48.609 261.460,48.402 263.000 C 47.744 267.897,47.541 270.193,47.787 269.946 C 48.138 269.596,49.689 256.755,49.414 256.481 C 49.329 256.396,49.152 257.198,49.019 258.263 M357.015 258.444 C 357.887 258.909,359.114 259.561,359.741 259.894 C 361.091 260.610,362.098 262.763,361.804 264.303 L 361.595 265.400 362.031 264.300 C 362.548 262.994,361.529 260.483,360.200 259.788 C 359.760 259.559,358.770 258.973,358.000 258.487 C 357.230 258.001,356.337 257.602,356.015 257.601 C 355.694 257.601,356.144 257.980,357.015 258.444 M154.464 260.055 C 155.268 260.795,156.019 261.670,156.132 262.000 C 156.314 262.533,156.340 262.533,156.362 262.000 C 156.398 261.165,156.015 260.703,154.400 259.636 L 153.000 258.711 154.464 260.055 M143.239 262.187 C 142.778 263.421,142.409 264.648,142.420 264.915 C 142.430 265.182,142.883 264.247,143.424 262.838 C 143.966 261.429,144.335 260.202,144.244 260.111 C 144.153 260.019,143.701 260.954,143.239 262.187 M70.077 268.276 C 70.035 272.058,70.135 275.237,70.300 275.339 C 70.465 275.442,70.553 273.428,70.495 270.863 C 70.302 262.260,70.155 261.348,70.077 268.276 M156.256 263.684 C 156.121 264.188,156.028 265.050,156.049 265.600 C 156.072 266.189,156.231 265.871,156.436 264.825 C 156.803 262.952,156.673 262.127,156.256 263.684 M346.897 266.504 C 346.400 267.617,346.054 268.587,346.127 268.661 C 346.347 268.880,348.074 265.217,347.931 264.835 C 347.859 264.641,347.394 265.392,346.897 266.504 M360.451 268.354 C 359.933 269.659,359.605 270.968,359.723 271.263 C 359.877 271.650,359.946 271.619,359.968 271.151 C 359.986 270.794,360.372 269.660,360.827 268.632 C 361.282 267.604,361.596 266.587,361.524 266.372 C 361.452 266.157,360.970 267.049,360.451 268.354 M140.891 268.549 C 140.401 269.264,139.997 270.018,139.993 270.225 C 139.989 270.431,139.449 271.392,138.793 272.360 C 138.137 273.328,137.603 274.318,137.607 274.560 C 137.614 275.080,139.306 272.399,140.231 270.400 C 140.588 269.630,141.161 268.684,141.504 268.298 C 141.847 267.911,142.050 267.517,141.955 267.422 C 141.860 267.327,141.381 267.834,140.891 268.549 M154.897 270.104 C 154.400 271.217,154.054 272.187,154.127 272.261 C 154.347 272.480,156.074 268.817,155.931 268.435 C 155.859 268.241,155.394 268.992,154.897 270.104 M202.200 269.889 C 201.540 270.250,200.370 270.685,199.600 270.855 L 198.200 271.163 199.600 271.017 C 201.469 270.821,205.755 269.225,204.400 269.229 C 203.850 269.231,202.860 269.528,202.200 269.889 M209.800 269.580 C 215.199 270.526,217.758 273.748,217.511 279.289 C 217.325 283.445,217.563 283.577,218.004 279.563 C 218.610 274.045,214.504 269.059,209.511 269.250 C 208.246 269.298,208.257 269.310,209.800 269.580 M345.300 270.283 C 344.369 272.408,342.590 274.923,341.796 275.233 C 341.146 275.487,341.125 275.549,341.681 275.572 C 342.056 275.587,342.649 275.195,342.999 274.700 C 344.794 272.163,346.054 269.963,345.929 269.587 C 345.852 269.355,345.568 269.668,345.300 270.283 M252.860 271.084 C 252.797 272.864,252.104 273.806,249.800 275.247 C 249.140 275.659,248.792 275.998,249.027 275.999 C 250.916 276.005,253.407 272.665,253.091 270.548 C 252.961 269.675,252.906 269.803,252.860 271.084 M196.323 271.902 C 196.035 272.288,195.080 273.075,194.200 273.651 C 192.543 274.735,189.963 279.064,190.034 280.641 C 190.060 281.212,190.144 281.153,190.375 280.400 C 191.037 278.238,192.831 275.239,193.999 274.343 C 196.003 272.805,197.656 271.200,197.236 271.200 C 197.021 271.200,196.610 271.516,196.323 271.902 M358.806 273.697 C 358.124 275.917,357.222 280.036,357.250 280.800 C 357.262 281.130,357.791 279.340,358.425 276.822 C 359.577 272.249,359.792 270.482,358.806 273.697 M47.200 272.648 C 47.200 272.857,46.447 273.607,45.527 274.314 C 44.607 275.021,44.022 275.593,44.227 275.585 C 44.883 275.559,47.793 272.859,47.491 272.557 C 47.331 272.397,47.200 272.438,47.200 272.648 M275.260 273.451 C 275.223 274.223,275.468 274.912,275.900 275.251 C 276.509 275.729,276.540 275.722,276.135 275.200 C 275.880 274.870,275.592 274.060,275.495 273.400 L 275.320 272.200 275.260 273.451 M104.000 275.600 L 71.000 275.807 103.876 275.903 C 125.467 275.967,136.838 275.863,137.000 275.600 C 137.136 275.380,137.192 275.243,137.124 275.297 C 137.056 275.350,122.150 275.486,104.000 275.600 M152.722 277.070 C 152.360 278.131,151.972 279.990,151.859 281.200 C 151.722 282.659,151.765 283.063,151.987 282.400 C 152.170 281.850,152.338 280.837,152.360 280.149 C 152.382 279.461,152.679 278.229,153.021 277.412 C 153.362 276.594,153.583 275.749,153.511 275.532 C 153.439 275.316,153.084 276.008,152.722 277.070 M42.491 276.395 C 42.083 276.832,41.041 277.450,40.175 277.767 C 39.309 278.084,38.831 278.356,39.113 278.372 C 40.006 278.421,42.171 277.343,42.962 276.455 C 43.923 275.376,43.491 275.321,42.491 276.395 M292.730 275.900 C 301.601 275.960,316.001 275.960,324.730 275.900 C 333.458 275.840,326.200 275.791,308.600 275.791 C 291.000 275.791,283.858 275.840,292.730 275.900 M247.200 276.801 C 246.650 277.231,245.574 277.795,244.810 278.053 C 243.466 278.506,240.741 279.995,241.250 279.999 C 241.914 280.002,247.482 277.224,247.957 276.652 C 248.670 275.793,248.426 275.841,247.200 276.801 M36.856 279.213 C 35.616 280.246,36.175 280.235,37.491 279.200 C 38.050 278.760,38.349 278.406,38.154 278.413 C 37.959 278.421,37.375 278.781,36.856 279.213 M32.956 281.042 C 30.558 282.648,29.598 283.662,29.618 284.570 C 29.634 285.292,29.699 285.263,30.118 284.341 C 30.698 283.067,32.631 281.407,34.461 280.613 C 35.198 280.293,35.510 280.024,35.156 280.016 C 34.802 280.007,33.812 280.469,32.956 281.042 M237.295 281.811 C 236.070 282.635,235.212 283.508,235.228 283.911 C 235.255 284.561,235.272 284.561,235.529 283.913 C 235.678 283.536,236.656 282.685,237.701 282.022 C 238.745 281.360,239.600 280.724,239.600 280.609 C 239.600 280.274,239.495 280.329,237.295 281.811 M356.893 284.000 C 356.893 284.770,356.975 285.085,357.076 284.700 C 357.176 284.315,357.176 283.685,357.076 283.300 C 356.975 282.915,356.893 283.230,356.893 284.000 M216.854 284.720 C 216.745 287.364,213.959 290.624,210.962 291.613 C 209.515 292.090,206.702 293.595,207.250 293.599 C 211.022 293.621,217.663 287.372,217.088 284.341 C 216.951 283.622,216.896 283.711,216.854 284.720 M151.309 285.600 C 151.309 286.590,151.387 286.995,151.482 286.500 C 151.578 286.005,151.578 285.195,151.482 284.700 C 151.387 284.205,151.309 284.610,151.309 285.600 M189.701 285.400 C 189.705 286.280,189.787 286.593,189.883 286.095 C 189.979 285.598,189.975 284.878,189.875 284.495 C 189.775 284.113,189.696 284.520,189.701 285.400 M234.294 287.677 C 232.805 293.846,232.544 293.772,249.400 291.993 L 252.200 291.698 249.000 291.822 C 247.240 291.890,243.381 292.140,240.424 292.378 C 237.110 292.644,234.906 292.666,234.677 292.437 C 234.174 291.934,234.246 289.078,234.805 287.384 C 235.055 286.627,235.201 285.725,235.130 285.380 C 235.058 285.036,234.682 286.070,234.294 287.677 M356.236 287.616 C 356.079 288.794,355.642 289.958,355.184 290.416 C 354.316 291.284,354.677 291.485,355.695 290.700 C 356.282 290.247,357.196 285.600,356.698 285.600 C 356.591 285.600,356.383 286.507,356.236 287.616 M190.046 287.753 C 189.985 288.747,191.433 291.057,192.308 291.361 C 192.912 291.571,192.923 291.538,192.394 291.101 C 191.604 290.447,190.543 288.773,190.292 287.783 C 190.105 287.049,190.090 287.047,190.046 287.753 M28.620 289.405 C 27.998 293.554,28.348 293.614,43.800 291.998 L 47.000 291.663 43.400 291.825 C 41.420 291.914,37.640 292.160,35.000 292.371 C 29.272 292.829,28.953 292.678,29.084 289.585 C 29.189 287.111,28.977 287.028,28.620 289.405 M150.854 288.600 C 150.778 289.980,150.449 290.585,149.600 290.908 C 149.115 291.093,149.132 291.143,149.686 291.168 C 150.582 291.210,151.293 289.844,151.085 288.480 C 150.922 287.415,150.919 287.417,150.854 288.600 M75.331 291.500 C 88.933 291.558,111.073 291.558,124.531 291.500 C 137.989 291.442,126.860 291.394,99.800 291.394 C 72.740 291.394,61.729 291.442,75.331 291.500 M280.700 291.500 C 294.175 291.558,316.225 291.558,329.700 291.500 C 343.175 291.442,332.150 291.394,305.200 291.394 C 278.250 291.394,267.225 291.442,280.700 291.500 M198.713 293.895 C 199.876 293.976,201.676 293.976,202.713 293.893 C 203.751 293.811,202.800 293.745,200.600 293.746 C 198.400 293.747,197.551 293.814,198.713 293.895 M0.000 394.400 C 0.000 394.620,0.262 394.800,0.581 394.800 C 0.901 394.800,1.535 395.565,1.990 396.500 C 3.559 399.722,3.987 400.331,3.994 399.349 C 3.997 398.881,3.705 398.253,3.345 397.955 C 2.985 397.656,2.362 396.644,1.960 395.706 C 1.312 394.195,0.000 393.321,0.000 394.400 M398.667 398.667 C 398.116 399.217,398.429 400.000,399.200 400.000 C 399.733 400.000,400.000 399.733,400.000 399.200 C 400.000 398.429,399.217 398.116,398.667 398.667 " stroke="none" fill="#9c8c94" fill-rule="evenodd"></path><path id="path4" d="M11.800 2.978 C 7.195 4.494,3.476 7.557,1.968 11.075 C 1.555 12.038,0.957 12.800,0.614 12.800 C 0.179 12.800,0.000 13.208,0.000 14.200 C 0.000 15.197,0.178 15.600,0.620 15.600 C 1.258 15.600,2.776 12.739,2.791 11.507 C 2.806 10.342,7.713 5.214,8.821 5.205 C 9.163 5.202,10.423 4.705,11.621 4.100 L 13.800 3.000 201.610 3.000 L 389.420 3.000 390.506 3.855 C 391.104 4.325,392.244 4.832,393.040 4.981 C 394.058 5.172,395.127 5.898,396.643 7.426 C 398.783 9.583,400.000 10.153,400.000 9.000 C 400.000 8.670,399.767 8.400,399.481 8.400 C 399.196 8.400,398.269 7.690,397.422 6.822 C 396.574 5.954,394.693 4.649,393.240 3.922 L 390.600 2.600 202.000 2.526 C 46.926 2.465,13.116 2.545,11.800 2.978 M246.537 112.869 C 246.204 113.237,245.834 114.317,245.715 115.269 C 245.595 116.221,245.151 117.381,244.728 117.848 C 243.185 119.548,243.836 123.626,245.800 124.565 C 246.680 124.986,247.670 125.481,248.000 125.666 C 249.497 126.504,250.599 126.800,253.655 127.183 C 255.651 127.434,257.217 127.853,257.664 128.258 C 258.097 128.649,259.422 129.020,260.899 129.161 L 263.400 129.400 263.517 132.753 C 263.604 135.232,263.425 136.795,262.831 138.753 C 262.119 141.098,261.983 143.224,261.640 157.400 C 261.326 170.372,261.134 173.681,260.627 174.886 C 260.030 176.302,259.707 181.209,259.063 198.600 C 258.958 201.438,258.672 203.521,258.258 204.468 C 257.760 205.607,257.518 208.481,257.179 217.268 C 256.838 226.112,256.576 229.215,255.982 231.400 C 255.414 233.494,255.129 236.533,254.853 243.447 C 254.609 249.579,254.311 253.015,253.970 253.647 C 253.341 254.811,252.451 263.581,252.421 268.900 C 252.408 271.333,252.243 272.800,251.982 272.800 C 251.752 272.800,251.137 273.227,250.615 273.748 C 250.094 274.270,249.216 274.810,248.664 274.948 C 248.113 275.087,247.135 275.643,246.492 276.184 C 245.848 276.726,244.534 277.346,243.572 277.562 C 242.610 277.778,241.631 278.216,241.398 278.535 C 241.164 278.855,240.235 279.337,239.332 279.608 C 236.658 280.409,234.400 282.757,234.400 284.738 C 234.400 285.876,234.148 286.604,233.566 287.146 C 232.473 288.164,232.043 292.220,232.907 293.365 C 233.882 294.657,247.611 294.115,250.800 292.658 C 251.529 292.325,265.909 292.167,303.855 292.077 C 345.940 291.978,356.047 291.854,356.625 291.431 C 357.211 291.002,357.396 290.024,357.646 286.012 C 357.878 282.302,358.115 280.935,358.625 280.372 C 359.058 279.894,359.412 278.497,359.618 276.456 C 359.814 274.507,360.319 272.457,360.927 271.141 C 361.472 269.964,362.041 268.100,362.193 267.000 C 362.345 265.898,362.818 264.623,363.247 264.160 C 363.955 263.398,363.968 263.271,363.390 262.792 C 363.040 262.501,362.503 261.663,362.196 260.929 C 361.890 260.195,361.225 259.437,360.719 259.243 C 360.214 259.050,359.457 258.511,359.038 258.046 C 358.619 257.581,357.819 257.200,357.260 257.200 C 356.700 257.200,355.603 256.771,354.822 256.246 C 352.787 254.881,351.354 254.626,350.591 255.494 C 348.318 258.080,347.923 258.882,347.537 261.696 C 347.275 263.602,346.869 264.889,346.354 265.442 C 345.923 265.905,345.430 267.168,345.259 268.249 C 345.066 269.471,344.580 270.600,343.974 271.233 C 343.438 271.792,342.693 272.824,342.319 273.525 L 341.637 274.800 309.019 274.800 L 276.400 274.800 276.440 268.700 C 276.482 262.311,276.877 256.647,277.564 252.600 C 277.787 251.280,278.171 243.000,278.417 234.200 C 278.806 220.255,278.962 217.904,279.631 215.898 C 280.054 214.633,280.400 212.979,280.400 212.224 C 280.400 211.470,280.576 210.390,280.790 209.826 L 281.180 208.800 307.352 208.800 L 333.524 208.800 334.626 210.680 C 335.653 212.433,335.746 212.975,336.007 218.752 C 336.373 226.864,336.479 226.990,342.704 226.713 C 348.273 226.466,348.366 226.370,348.655 220.570 C 348.787 217.930,349.169 215.307,349.621 213.944 C 350.079 212.561,350.528 209.436,350.782 205.871 C 351.116 201.161,351.356 199.782,352.042 198.618 C 352.657 197.577,352.948 196.240,353.104 193.752 C 353.268 191.124,353.490 190.161,354.055 189.634 C 355.742 188.063,356.135 181.569,354.604 180.566 C 351.290 178.394,342.800 180.351,342.800 183.287 C 342.800 183.981,342.380 184.984,341.800 185.673 C 341.250 186.327,340.800 187.273,340.800 187.776 C 340.800 188.279,340.260 189.369,339.600 190.200 C 338.940 191.031,338.400 192.114,338.400 192.608 C 338.400 193.992,338.465 193.989,308.943 193.995 C 284.096 193.999,281.261 193.936,281.043 193.368 C 280.659 192.367,281.218 185.963,281.843 184.200 C 282.193 183.212,282.624 178.853,282.968 172.800 C 283.365 165.826,283.707 162.577,284.154 161.534 C 284.609 160.471,284.912 157.441,285.254 150.534 C 285.650 142.532,285.838 140.854,286.428 140.090 C 286.962 139.399,287.200 138.026,287.417 134.390 L 287.703 129.600 318.389 129.600 C 348.568 129.600,349.088 129.613,349.800 130.400 C 350.198 130.840,350.747 131.200,351.019 131.200 C 352.413 131.200,352.573 145.027,351.201 146.884 C 350.125 148.339,350.192 149.292,351.477 150.818 L 352.554 152.098 356.727 151.912 C 360.252 151.756,361.002 151.605,361.550 150.940 C 361.908 150.508,362.668 149.956,363.239 149.713 C 364.630 149.123,366.251 145.929,366.608 143.076 C 366.767 141.801,367.236 140.354,367.667 139.805 C 368.093 139.264,368.623 137.692,368.845 136.311 C 369.076 134.877,369.571 133.457,370.000 133.000 C 370.413 132.560,370.926 131.422,371.140 130.471 C 371.353 129.521,371.826 128.414,372.190 128.012 C 372.553 127.609,373.098 126.344,373.400 125.200 C 373.702 124.056,374.203 122.823,374.514 122.460 C 375.595 121.196,375.625 120.825,374.715 119.927 C 374.212 119.431,373.612 118.302,373.383 117.420 C 373.077 116.245,372.542 115.523,371.383 114.723 L 369.800 113.630 322.000 113.483 C 293.588 113.396,270.793 113.152,265.800 112.881 C 251.313 112.097,247.236 112.095,246.537 112.869 M41.900 112.799 C 40.794 113.495,40.000 115.403,40.000 117.365 C 40.000 118.682,39.773 119.380,39.161 119.951 C 37.764 121.252,39.445 125.200,41.397 125.200 C 41.747 125.200,42.520 125.549,43.116 125.975 C 43.842 126.495,45.437 126.895,47.947 127.189 C 50.007 127.430,52.240 127.910,52.908 128.256 C 53.576 128.601,54.950 129.002,55.961 129.146 L 57.800 129.409 57.929 134.404 C 58.048 139.024,57.677 142.934,56.789 146.400 C 56.592 147.170,56.229 154.631,55.984 162.981 C 55.666 173.787,55.389 178.455,55.022 179.181 C 54.354 180.503,53.999 185.094,53.614 197.400 C 53.377 204.960,53.151 207.742,52.687 208.800 C 52.066 210.219,51.200 222.139,51.200 229.277 C 51.200 231.646,51.020 232.879,50.582 233.504 C 49.794 234.629,49.641 236.202,49.240 247.229 C 48.976 254.477,48.784 256.453,48.264 257.247 C 47.784 257.979,47.500 260.044,47.168 265.218 L 46.721 272.200 45.328 273.483 C 44.563 274.189,43.546 274.884,43.068 275.028 C 42.591 275.172,41.750 275.706,41.200 276.214 C 40.650 276.722,39.510 277.264,38.666 277.420 C 37.822 277.575,36.695 278.106,36.162 278.600 C 35.628 279.095,34.519 279.608,33.696 279.742 C 31.344 280.125,28.800 282.680,28.800 284.660 C 28.800 285.513,28.431 286.900,27.980 287.741 C 26.597 290.322,26.994 293.274,28.800 293.833 C 30.353 294.314,38.875 293.925,43.000 293.184 C 48.376 292.220,55.455 292.083,102.091 292.042 L 150.782 292.000 151.345 291.100 C 151.655 290.605,152.001 288.737,152.113 286.949 C 152.226 285.153,152.579 283.273,152.901 282.749 C 153.222 282.227,153.708 280.000,153.981 277.800 C 154.325 275.025,154.727 273.444,155.296 272.639 C 155.772 271.963,156.310 270.207,156.582 268.439 C 156.838 266.767,157.290 264.909,157.584 264.309 C 158.293 262.865,156.807 259.820,155.104 259.226 C 154.497 259.015,154.000 258.591,154.000 258.285 C 154.000 257.613,152.340 256.800,150.969 256.800 C 150.422 256.800,149.873 256.534,149.748 256.208 C 149.540 255.667,147.310 254.808,146.100 254.802 C 145.115 254.798,144.000 256.381,144.000 257.784 C 144.000 258.665,143.702 259.447,143.180 259.932 C 142.633 260.442,142.212 261.611,141.915 263.448 C 141.623 265.249,141.146 266.591,140.534 267.331 C 140.021 267.953,139.600 268.808,139.600 269.231 C 139.600 269.654,139.254 270.346,138.830 270.770 C 137.794 271.806,137.200 272.974,137.200 273.974 L 137.200 274.800 104.000 274.800 L 70.800 274.800 70.801 272.500 C 70.803 268.801,71.586 259.523,72.026 258.000 C 72.248 257.230,72.604 249.400,72.818 240.600 C 73.031 231.800,73.374 224.150,73.581 223.600 C 73.788 223.050,74.237 219.778,74.580 216.329 C 74.923 212.879,75.312 209.774,75.444 209.429 C 75.840 208.397,127.917 208.480,129.194 209.515 C 130.004 210.170,130.109 210.760,130.464 216.615 C 131.105 227.177,131.044 227.094,137.803 226.691 C 142.733 226.397,142.827 226.308,143.076 221.744 C 143.182 219.795,143.600 217.203,144.005 215.983 C 144.456 214.624,144.902 211.470,145.158 207.829 C 145.474 203.317,145.732 201.717,146.231 201.165 C 146.688 200.661,147.036 198.996,147.372 195.715 C 147.696 192.564,148.090 190.634,148.558 189.921 C 148.943 189.333,149.441 187.535,149.664 185.926 C 149.886 184.317,150.264 182.765,150.501 182.478 C 152.025 180.640,144.307 179.133,139.711 180.370 C 138.101 180.804,137.200 182.071,137.200 183.902 C 137.200 184.222,136.776 184.989,136.257 185.605 C 135.738 186.221,135.202 187.424,135.066 188.278 C 134.929 189.132,134.461 190.213,134.025 190.681 C 133.589 191.149,133.120 191.980,132.982 192.528 C 132.843 193.082,132.348 193.627,131.866 193.757 C 130.693 194.072,78.425 194.065,76.850 193.750 C 75.391 193.458,75.100 191.294,76.173 188.725 C 76.544 187.837,76.898 184.469,77.175 179.177 C 77.763 167.948,78.019 165.257,78.674 163.400 C 79.018 162.425,79.401 158.596,79.653 153.600 C 79.962 147.477,80.259 144.826,80.826 143.134 C 81.346 141.584,81.670 139.092,81.854 135.234 L 82.123 129.600 112.983 129.600 L 143.843 129.600 145.082 130.900 C 145.997 131.861,146.386 132.722,146.572 134.200 C 146.907 136.867,146.171 149.112,145.636 149.756 C 145.329 150.127,145.434 150.500,146.023 151.132 C 147.429 152.642,154.850 152.273,156.167 150.628 C 156.405 150.331,157.281 149.872,158.114 149.608 C 160.119 148.973,160.707 147.960,161.018 144.600 C 161.186 142.798,161.560 141.399,162.069 140.675 C 162.505 140.056,163.045 138.346,163.271 136.875 C 163.496 135.404,163.914 133.930,164.199 133.600 C 164.483 133.270,165.018 132.100,165.386 131.000 C 165.754 129.900,166.388 128.640,166.795 128.200 C 167.202 127.760,167.660 126.723,167.813 125.897 C 167.965 125.070,168.419 123.975,168.820 123.465 C 169.836 122.173,170.098 120.752,169.504 119.754 C 169.227 119.289,168.595 118.172,168.101 117.271 C 167.560 116.287,166.509 115.229,165.466 114.617 L 163.730 113.600 116.362 113.600 C 88.262 113.600,68.466 113.448,67.694 113.227 C 65.668 112.646,42.748 112.266,41.900 112.799 M52.800 113.433 C 63.072 114.589,70.402 114.741,117.138 114.770 C 159.867 114.797,164.176 114.859,165.186 115.455 C 166.488 116.224,168.942 120.283,168.648 121.181 C 167.599 124.376,166.768 126.433,166.053 127.605 C 165.586 128.372,165.202 129.291,165.201 129.646 C 165.201 130.001,164.827 130.767,164.370 131.347 C 163.914 131.927,163.196 133.845,162.774 135.609 C 162.353 137.372,161.758 139.217,161.452 139.708 C 161.146 140.198,160.789 141.574,160.659 142.765 C 160.406 145.081,158.985 148.347,158.000 148.877 C 157.670 149.055,156.950 149.388,156.400 149.617 C 155.850 149.847,154.950 150.294,154.400 150.611 C 153.117 151.351,147.469 151.418,146.907 150.700 C 146.509 150.190,147.261 140.850,147.930 138.000 C 148.408 135.964,147.150 131.765,145.595 130.210 L 144.385 129.000 113.447 128.893 C 77.965 128.770,81.697 128.261,81.136 133.299 C 80.934 135.115,80.501 138.220,80.173 140.200 C 79.844 142.180,79.318 147.220,79.002 151.400 C 78.686 155.580,78.239 159.630,78.009 160.400 C 77.778 161.170,77.403 164.500,77.174 167.800 C 76.632 175.622,76.213 180.129,75.377 187.123 C 74.858 191.461,74.800 193.082,75.138 193.823 L 75.583 194.800 103.491 194.772 C 118.841 194.756,131.703 194.621,132.073 194.472 C 133.033 194.084,134.992 191.249,135.589 189.385 C 135.869 188.513,136.419 187.260,136.812 186.600 C 137.205 185.940,137.730 184.635,137.979 183.699 C 138.661 181.134,139.778 180.589,144.218 180.651 C 150.088 180.733,150.530 181.553,148.149 187.948 C 147.627 189.349,147.200 190.958,147.200 191.524 C 147.200 193.070,146.414 197.085,145.560 199.908 C 145.142 201.288,144.800 203.281,144.800 204.337 C 144.800 205.393,144.432 207.954,143.982 210.028 C 143.531 212.103,142.922 216.291,142.627 219.335 C 141.996 225.838,142.240 225.478,138.047 226.090 C 132.500 226.898,132.113 226.306,131.197 215.600 C 130.943 212.630,130.573 209.795,130.376 209.300 L 130.017 208.400 102.658 208.400 C 81.250 208.400,75.211 208.509,74.897 208.900 C 73.627 210.484,73.098 216.437,71.994 241.600 C 71.758 246.990,71.382 252.223,71.159 253.228 C 70.937 254.233,70.720 259.633,70.677 265.228 L 70.600 275.400 103.200 275.510 C 139.602 275.633,137.150 275.759,138.102 273.711 C 138.858 272.084,139.674 270.615,141.053 268.400 C 141.533 267.630,142.050 266.370,142.204 265.600 C 142.357 264.830,142.889 263.120,143.387 261.800 C 143.885 260.480,144.503 258.635,144.762 257.700 C 145.279 255.832,146.909 255.350,148.537 256.584 C 148.942 256.891,149.955 257.257,150.788 257.398 C 151.702 257.552,152.897 258.199,153.801 259.027 C 154.626 259.782,155.449 260.400,155.631 260.400 C 157.034 260.400,156.531 267.885,154.898 271.300 C 153.529 274.166,152.375 279.245,151.604 285.800 C 151.066 290.374,150.783 291.023,149.185 291.343 C 148.478 291.484,125.468 291.609,98.050 291.619 C 70.633 291.630,46.400 291.805,44.200 292.009 C 26.880 293.612,27.807 293.899,29.048 287.312 C 29.843 283.087,31.571 280.998,35.066 280.033 C 35.852 279.816,36.788 279.383,37.147 279.071 C 37.506 278.758,38.744 278.196,39.898 277.820 C 41.051 277.444,42.131 276.906,42.298 276.623 C 42.464 276.340,43.140 275.817,43.800 275.461 C 47.105 273.678,47.322 273.277,47.883 267.918 C 48.167 265.213,48.578 261.740,48.798 260.200 C 49.017 258.660,49.374 254.790,49.592 251.600 C 49.810 248.410,50.197 244.900,50.453 243.800 C 50.972 241.564,51.363 236.928,51.955 226.000 C 52.176 221.930,52.540 217.430,52.765 216.000 C 53.466 211.545,53.954 206.411,54.212 200.800 C 54.348 197.830,54.803 191.710,55.224 187.200 C 55.644 182.690,56.180 174.410,56.414 168.800 C 56.648 163.190,57.028 156.890,57.257 154.800 C 58.739 141.294,59.135 129.988,58.153 129.182 C 57.056 128.281,53.906 127.314,49.800 126.618 C 43.984 125.631,40.498 124.331,40.171 123.027 C 39.521 120.431,40.737 115.369,42.359 113.921 C 43.857 112.582,44.830 112.536,52.800 113.433 M258.600 113.446 C 269.132 114.598,275.852 114.736,322.681 114.768 C 358.118 114.792,369.818 114.917,370.611 115.278 C 372.130 115.970,374.438 120.859,373.714 121.850 C 373.431 122.237,373.200 122.852,373.200 123.217 C 373.200 123.582,372.779 124.674,372.263 125.642 C 371.748 126.611,371.090 128.122,370.800 129.000 C 370.510 129.878,369.852 131.389,369.337 132.358 C 368.821 133.326,368.400 134.450,368.400 134.855 C 368.400 135.260,367.971 136.718,367.446 138.096 C 366.921 139.473,365.987 142.220,365.370 144.200 C 363.740 149.427,362.376 150.519,356.726 151.115 C 351.573 151.658,351.424 151.347,352.553 142.400 C 353.705 133.261,352.762 129.946,348.789 129.180 C 346.219 128.684,288.534 128.700,287.606 129.197 C 287.043 129.498,286.803 130.244,286.609 132.297 C 286.469 133.784,286.189 135.405,285.986 135.899 C 285.784 136.394,285.335 140.714,284.988 145.499 C 284.642 150.285,284.096 155.100,283.775 156.200 C 283.453 157.300,283.008 160.990,282.786 164.400 C 282.399 170.331,282.086 173.532,281.198 180.600 C 280.443 186.616,280.236 193.521,280.791 194.189 C 281.340 194.850,336.097 195.098,337.754 194.448 C 338.507 194.152,339.236 192.994,340.804 189.600 C 341.261 188.610,341.809 187.530,342.021 187.200 C 342.731 186.093,343.170 185.011,343.600 183.307 C 344.185 180.989,345.020 180.626,349.690 180.658 C 355.223 180.696,356.056 182.125,353.813 187.732 C 353.269 189.089,352.658 191.370,352.454 192.800 C 352.250 194.230,351.704 196.519,351.241 197.887 C 350.779 199.255,350.400 201.248,350.400 202.316 C 350.400 203.383,350.034 205.954,349.588 208.028 C 349.141 210.103,348.577 214.140,348.336 217.000 C 347.602 225.687,347.652 225.610,342.289 226.169 C 337.693 226.647,336.995 225.562,336.650 217.400 C 336.405 211.605,335.933 209.406,334.804 208.802 C 334.303 208.534,324.843 208.430,307.155 208.497 L 280.269 208.600 279.551 209.884 C 278.940 210.979,278.713 213.542,278.014 227.284 C 277.563 236.148,276.938 246.460,276.625 250.200 C 275.721 260.982,275.458 274.584,276.142 275.152 C 277.289 276.104,341.974 275.567,342.662 274.600 C 345.242 270.972,346.854 267.461,348.076 262.800 C 348.943 259.494,350.657 256.000,351.410 256.000 C 352.372 256.000,357.500 258.154,359.800 259.524 C 362.465 261.112,362.779 264.908,360.602 269.200 C 359.751 270.877,357.280 281.945,356.775 286.341 L 356.299 290.483 354.962 291.041 C 353.843 291.509,345.496 291.603,303.713 291.619 C 276.261 291.630,252.000 291.805,249.800 292.009 C 234.010 293.470,233.592 293.457,233.615 291.492 C 233.654 288.197,235.396 283.106,236.827 282.106 C 238.112 281.207,244.507 278.000,245.014 278.000 C 245.460 278.000,250.560 274.789,251.635 273.832 C 252.611 272.962,252.751 272.498,252.994 269.331 C 253.284 265.548,253.766 261.385,254.399 257.200 C 254.616 255.770,254.978 252.170,255.204 249.200 C 255.431 246.230,255.787 242.450,255.996 240.800 C 256.979 233.052,257.207 230.416,257.584 222.400 C 257.807 217.670,258.094 213.357,258.223 212.815 C 258.747 210.617,259.252 205.192,260.012 193.600 C 260.452 186.890,260.984 180.140,261.194 178.600 C 261.404 177.060,261.766 171.300,261.998 165.800 C 262.379 156.762,262.759 151.134,263.374 145.400 C 264.818 131.949,264.501 128.400,261.856 128.400 C 261.385 128.400,260.100 128.060,259.000 127.646 C 257.900 127.231,256.190 126.770,255.200 126.621 C 253.005 126.290,246.790 124.425,246.100 123.890 C 245.508 123.430,245.417 118.698,245.967 116.960 C 246.169 116.322,246.444 115.297,246.579 114.683 C 247.025 112.651,249.244 112.422,258.600 113.446 M202.000 268.682 C 201.670 268.803,201.040 269.216,200.600 269.600 C 200.160 269.983,199.015 270.396,198.055 270.517 C 196.984 270.651,195.903 271.115,195.255 271.719 C 194.675 272.260,193.803 272.906,193.319 273.155 C 192.834 273.404,191.754 274.638,190.919 275.896 L 189.400 278.184 189.400 284.060 C 189.400 290.410,189.767 291.497,192.163 292.249 C 192.623 292.393,193.407 292.948,193.904 293.481 C 195.194 294.864,208.360 294.772,210.268 293.366 C 210.891 292.907,211.877 292.413,212.461 292.268 C 214.803 291.686,217.217 288.636,217.669 285.687 C 217.895 284.209,218.323 282.726,218.620 282.391 C 220.259 280.540,218.400 271.200,216.393 271.200 C 216.272 271.200,215.195 270.570,214.000 269.800 L 211.827 268.400 207.213 268.432 C 204.676 268.449,202.330 268.562,202.000 268.682 M213.200 270.414 C 215.820 271.722,216.488 272.405,217.532 274.840 C 218.356 276.764,218.362 276.413,217.375 283.800 C 216.977 286.780,216.775 287.245,215.086 289.078 C 210.987 293.530,198.147 295.804,194.482 292.728 C 193.779 292.138,192.852 291.544,192.422 291.407 C 188.000 290.003,189.317 276.847,194.200 273.651 C 195.080 273.075,196.028 272.298,196.306 271.925 C 196.586 271.551,197.660 271.124,198.706 270.972 C 199.748 270.820,201.140 270.416,201.800 270.073 C 204.721 268.555,209.782 268.706,213.200 270.414 M0.000 392.600 C 0.000 393.592,0.179 394.000,0.614 394.000 C 0.956 394.000,1.553 394.756,1.960 395.706 C 2.362 396.644,2.985 397.656,3.345 397.955 C 3.705 398.253,4.000 398.836,4.000 399.249 C 4.000 399.662,4.270 400.000,4.600 400.000 C 5.596 400.000,5.276 398.505,4.000 397.200 C 3.340 396.525,2.796 395.664,2.791 395.286 C 2.776 394.059,1.256 391.200,0.620 391.200 C 0.178 391.200,0.000 391.603,0.000 392.600 M398.000 398.000 C 397.560 398.440,397.200 399.070,397.200 399.400 C 397.200 400.290,398.273 400.127,398.516 399.200 C 398.631 398.760,399.012 398.400,399.363 398.400 C 399.713 398.400,400.000 398.130,400.000 397.800 C 400.000 396.951,398.944 397.056,398.000 398.000 " stroke="none" fill="#b2a39c" fill-rule="evenodd"></path></g></svg>