<?xml version="1.0" standalone="yes"?>
<svg xmlns="http://www.w3.org/2000/svg" width="300" height="168">
<path style="fill:#fefefe; stroke:none;" d="M0 0L0 168L300 168L300 0L0 0z"/>
<path style="fill:#92c14f; stroke:none;" d="M65 53L66 54L65 53z"/>
<path style="fill:#3c7db2; stroke:none;" d="M64 54L65 55L64 54z"/>
<path style="fill:#0b447b; stroke:none;" d="M65 54L49 82L55 84C59.7237 76.2819 71.8894 62.6739 65 54z"/>
<path style="fill:#92c14f; stroke:none;" d="M63 55L64 56L63 55M66 55L67 56L66 55M62 57L63 58L62 57z"/>
<path style="fill:#589b52; stroke:none;" d="M67 57L68 58L67 57z"/>
<path style="fill:#3c7db2; stroke:none;" d="M61 59L62 60L61 59M68.3333 59.6667L68.6667 60.3333L68.3333 59.6667M60 61L61 62L60 61z"/>
<path style="fill:#92c14f; stroke:none;" d="M59 62L60 63L59 62z"/>
<path style="fill:#589b52; stroke:none;" d="M67 62L68 63L67 62z"/>
<path style="fill:#3c7db2; stroke:none;" d="M69 62L53 91L69 75L70 75L77 88L79 88L79 89L78 90L80 93L82 93L82 94L81 95L87 90L84 85L82 85L83 83L69 62z"/>
<path style="fill:#92c14f; stroke:none;" d="M70 62L71 63L70 62z"/>
<path style="fill:#fefefe; stroke:none;" d="M67 63L52 91L53 91C56.4556 83.5987 68.1827 71.1076 67 63z"/>
<path style="fill:#92c14f; stroke:none;" d="M68 63L69 64L68 63M58 64L59 65L58 64M66 64L67 65L66 64z"/>
<path style="fill:#589b52; stroke:none;" d="M71 64L72 65L71 64z"/>
<path style="fill:#92c14f; stroke:none;" d="M116 64L116 70L117 70L116 64z"/>
<path style="fill:#3c7db2; stroke:none;" d="M117 64L117 70L121 70L121 64L117 64z"/>
<path style="fill:#589b52; stroke:none;" d="M121 64L121 70L122 70L121 64z"/>
<path style="fill:#92c14f; stroke:none;" d="M130 64L130 65L135 65L135 99C137.988 91.8801 139.213 64.7178 130 64M143 99L144 99L144 65L149 65C143.663 62.9723 143.03 67.6873 143.001 72C142.939 80.9991 143 90.0007 143 99M230 64L230 70L231 70L231 65L236 65L230 64M262 64L262 65L267 65L267 69C268.28 65.0943 265.451 64.2685 262 64z"/>
<path style="fill:#589b52; stroke:none;" d="M67 65L68 66L67 65z"/>
<path style="fill:#0b447b; stroke:none;" d="M130 65L130 98L135 98L135 65L130 65M144 65L144 98L149 98L149 65L144 65M231 65L231 69L236 69L236 65L231 65M262 65L262 69L267 69L267 65L262 65z"/>
<path style="fill:#3c7db2; stroke:none;" d="M57 66L58 67L57 66z"/>
<path style="fill:#92c14f; stroke:none;" d="M245 74L246 74L246 67L251 67C245.633 64.9611 245.051 69.719 245 74z"/>
<path style="fill:#3c7db2; stroke:none;" d="M64 67L65 68L64 67z"/>
<path style="fill:#92c14f; stroke:none;" d="M73 67L74 68L73 67z"/>
<path style="fill:#0b447b; stroke:none;" d="M246 67L246 74L242 74L242 78L246 78C246 83.0937 244.495 91.0563 246.742 95.7215C248.953 100.311 254.618 99.1621 256 95C248.948 92.8593 251 84.0199 251 78L256 78L256 74L251 74L251 67L246 67z"/>
<path style="fill:#92c14f; stroke:none;" d="M65 68L66 69L65 68M55 69L56 70L55 69M63 69L64 70L63 69M74 69L75 70L74 69z"/>
<path style="fill:#589b52; stroke:none;" d="M231 69L231 70L236 70L231 69z"/>
<path style="fill:#3c7db2; stroke:none;" d="M262 69L263 70L262 69z"/>
<path style="fill:#589b52; stroke:none;" d="M263 69L263 70L267 70L263 69z"/>
<path style="fill:#92c14f; stroke:none;" d="M64 70L65 71L64 70z"/>
<path style="fill:#589b52; stroke:none;" d="M54 71L55 72L54 71z"/>
<path style="fill:#92c14f; stroke:none;" d="M62 71L63 72L62 71z"/>
<path style="fill:#3c7db2; stroke:none;" d="M61 72L62 73L61 72M53 73L54 74L53 73z"/>
<path style="fill:#92c14f; stroke:none;" d="M196.667 73.3333L197.333 73.6667L196.667 73.3333z"/>
<path style="fill:#3c7db2; stroke:none;" d="M198 73L198 74L201 74L198 73z"/>
<path style="fill:#92c14f; stroke:none;" d="M201 73L202 74L201 73M211 73L212 74L211 73z"/>
<path style="fill:#589b52; stroke:none;" d="M212 73L213 74L212 73z"/>
<path style="fill:#3c7db2; stroke:none;" d="M213 73L213 74L216 74L213 73z"/>
<path style="fill:#92c14f; stroke:none;" d="M216.667 73.3333L217.333 73.6667L216.667 73.3333M52 74L53 75L52 74z"/>
<path style="fill:#589b52; stroke:none;" d="M60 74L61 75L60 74z"/>
<path style="fill:#92c14f; stroke:none;" d="M77 74L78 75L77 74M116 74L116 99L117 99L116 74z"/>
<path style="fill:#0b447b; stroke:none;" d="M117 74L117 98L122 98L122 74L117 74M157 74C157 84.9358 157.056 108.525 174 95L178 98L178 74L174 74C174 77.9913 174.337 101.747 164.434 93.392C160.018 89.6665 162 79.165 162 74L157 74z"/>
<path style="fill:#92c14f; stroke:none;" d="M162 74L162 92L163 92L162 74z"/>
<path style="fill:#3c7db2; stroke:none;" d="M173 74L173 90L174 90L173 74M178 74L178 98L174 98L174 99C181.598 97.732 180.445 79.8265 178 74z"/>
<path style="fill:#92c14f; stroke:none;" d="M186 74L186 99L187 99L186 74z"/>
<path style="fill:#0b447b; stroke:none;" d="M187 74L187 98L192 98C192 94.382 190.634 72.7212 199.682 78.8511C204.092 81.8389 202 93.349 202 98L207 98C207 93.4335 204.797 77.1609 212.958 78.037C219.928 78.7854 218 93.3783 218 98L222 98C222 92.2925 223.947 82.1728 220.972 77.1481C217.178 70.7402 195.704 74.0221 191 78L191 74L187 74z"/>
<path style="fill:#589b52; stroke:none;" d="M191.333 74.6667L191.667 75.3333L191.333 74.6667z"/>
<path style="fill:#92c14f; stroke:none;" d="M194 74L195 75L194 74M209 74L210 75L209 74M219 74L220 75L219 74M230 74L230 99L231 99L230 74z"/>
<path style="fill:#0b447b; stroke:none;" d="M231 74L231 98L236 98L236 74L231 74z"/>
<path style="fill:#3c7db2; stroke:none;" d="M241 74L242 75L241 74z"/>
<path style="fill:#0b447b; stroke:none;" d="M262 74L262 98L267 98L267 74L262 74z"/>
<path style="fill:#92c14f; stroke:none;" d="M267 74L267 99L268 99L267 74M61 75L62 76L61 75M69 75L70 76L69 75z"/>
<path style="fill:#589b52; stroke:none;" d="M193 75L194 76L193 75z"/>
<path style="fill:#92c14f; stroke:none;" d="M205 75L206 76L205 75z"/>
<path style="fill:#3c7db2; stroke:none;" d="M208 75L209 76L208 75M220 75L221 76L220 75z"/>
<path style="fill:#589b52; stroke:none;" d="M241.333 75.6667L241.667 76.3333L241.333 75.6667z"/>
<path style="fill:#92c14f; stroke:none;" d="M51 76L52 77L51 76M59 76L60 77L59 76M68 76L69 77L68 76z"/>
<path style="fill:#589b52; stroke:none;" d="M78 76L79 77L78 76z"/>
<path style="fill:#92c14f; stroke:none;" d="M191.667 76.3333L192.333 76.6667L191.667 76.3333z"/>
<path style="fill:#3c7db2; stroke:none;" d="M207 76L208 77L207 76z"/>
<path style="fill:#92c14f; stroke:none;" d="M221 76L222 77L221 76z"/>
<path style="fill:#589b52; stroke:none;" d="M60 77L61 78L60 77z"/>
<path style="fill:#92c14f; stroke:none;" d="M71 77L72 78L71 77z"/>
<path style="fill:#3c7db2; stroke:none;" d="M191 77L192 78L191 77z"/>
<path style="fill:#589b52; stroke:none;" d="M196 77L197 78L196 77z"/>
<path style="fill:#92c14f; stroke:none;" d="M197 77L198 78L197 77z"/>
<path style="fill:#589b52; stroke:none;" d="M198 77L199 78L198 77M211 77L212 78L211 77z"/>
<path style="fill:#92c14f; stroke:none;" d="M212 77L213 78L212 77z"/>
<path style="fill:#589b52; stroke:none;" d="M213 77L214 78L213 77z"/>
<path style="fill:#3c7db2; stroke:none;" d="M214 77L215 78L214 77M241 77L242 78L241 77z"/>
<path style="fill:#589b52; stroke:none;" d="M50 78L51 79L50 78z"/>
<path style="fill:#92c14f; stroke:none;" d="M194 78L195 79L194 78M200 78L201 79L200 78M209 78L210 79L209 78M222.333 78.6667L222.667 79.3333L222.333 78.6667M245 78L245 95L246 95L245 78z"/>
<path style="fill:#3c7db2; stroke:none;" d="M57 79L58 80L57 79z"/>
<path style="fill:#92c14f; stroke:none;" d="M72 79L73 80L72 79M80 79L81 80L80 79M193 79L194 80L193 79z"/>
<path style="fill:#3c7db2; stroke:none;" d="M201 79L202 80L201 79z"/>
<path style="fill:#92c14f; stroke:none;" d="M208 79L209 80L208 79M216 79L217 80L216 79z"/>
<path style="fill:#3c7db2; stroke:none;" d="M49 80L50 81L49 80z"/>
<path style="fill:#92c14f; stroke:none;" d="M58 80L59 81L58 80z"/>
<path style="fill:#3c7db2; stroke:none;" d="M192 80L193 81L192 80z"/>
<path style="fill:#92c14f; stroke:none;" d="M201 80L202 81L201 80z"/>
<path style="fill:#589b52; stroke:none;" d="M222 80L222 98L223 98L222 80z"/>
<path style="fill:#92c14f; stroke:none;" d="M48 81L49 82L48 81z"/>
<path style="fill:#589b52; stroke:none;" d="M56 81L57 82L56 81z"/>
<path style="fill:#92c14f; stroke:none;" d="M81 81L82 82L81 81M192 81L193 82L192 81M207 81L207 84L208 84L207 81z"/>
<path style="fill:#3c7db2; stroke:none;" d="M48 82L42 94C49.9659 99.2543 56.3524 102.999 66 103L66 102L48 96L52 90L55 84L48 82z"/>
<path style="fill:#92c14f; stroke:none;" d="M57 82L58 83L57 82M72 82L76 99L81 97L80 91C76.9546 90.6087 76.9269 88.8737 77 86L72 82z"/>
<path style="fill:#0b447b; stroke:none;" d="M81 82L82 83L81 82z"/>
<path style="fill:#92c14f; stroke:none;" d="M47 83L48 84L47 83M55 83L56 84L55 83z"/>
<path style="fill:#0b447b; stroke:none;" d="M75 83L76 84L75 83z"/>
<path style="fill:#3c7db2; stroke:none;" d="M217 83L217 99L222 99L222 98L218 98L217 83z"/>
<path style="fill:#0b447b; stroke:none;" d="M47 84L48 85L47 84z"/>
<path style="fill:#92c14f; stroke:none;" d="M75 84L76 85L75 84z"/>
<path style="fill:#0b447b; stroke:none;" d="M82 84L83 85L82 84z"/>
<path style="fill:#589b52; stroke:none;" d="M46 85L47 86L46 85z"/>
<path style="fill:#0b447b; stroke:none;" d="M53 85L54 86L53 85M46 86L47 87L46 86z"/>
<path style="fill:#589b52; stroke:none;" d="M53 86L54 87L53 86z"/>
<path style="fill:#0b447b; stroke:none;" d="M77 86L78 87L77 86M83 86L85 91L86 91L83 86z"/>
<path style="fill:#92c14f; stroke:none;" d="M84 86L85 87L84 86z"/>
<path style="fill:#0b447b; stroke:none;" d="M52 87L51 89L52 87z"/>
<path style="fill:#92c14f; stroke:none;" d="M54 87L55 88L54 87z"/>
<path style="fill:#fefefe; stroke:none;" d="M76 87L78 92L79 92L76 87z"/>
<path style="fill:#92c14f; stroke:none;" d="M44 88L45 89L44 88M52 88L53 89L52 88z"/>
<path style="fill:#0b447b; stroke:none;" d="M78 88L79 89L78 88z"/>
<path style="fill:#589b52; stroke:none;" d="M85 88L86 89L85 88z"/>
<path style="fill:#0b447b; stroke:none;" d="M44 89L45 90L44 89z"/>
<path style="fill:#589b52; stroke:none;" d="M53 89L54 90L53 89z"/>
<path style="fill:#0b447b; stroke:none;" d="M79.3333 89.6667L79.6667 90.3333L79.3333 89.6667z"/>
<path style="fill:#92c14f; stroke:none;" d="M43 90L44 91L43 90z"/>
<path style="fill:#0b447b; stroke:none;" d="M50 90L51 91L50 90z"/>
<path style="fill:#92c14f; stroke:none;" d="M51 90L52 91L51 90z"/>
<path style="fill:#0b447b; stroke:none;" d="M43 91L44 92L43 91z"/>
<path style="fill:#589b52; stroke:none;" d="M50 91L51 92L50 91z"/>
<path style="fill:#92c14f; stroke:none;" d="M52 91L53 92L52 91z"/>
<path style="fill:#0b447b; stroke:none;" d="M80 91L81 92L80 91M86 91L82 94C84.5746 102.136 88.7574 110.891 98 111L86 91z"/>
<path style="fill:#589b52; stroke:none;" d="M42 92L43 93L42 92z"/>
<path style="fill:#0b447b; stroke:none;" d="M49 92L50 93L49 92z"/>
<path style="fill:#fefefe; stroke:none;" d="M79 92L88 109L89 109L79 92z"/>
<path style="fill:#3c7db2; stroke:none;" d="M87 92L88 93L87 92z"/>
<path style="fill:#589b52; stroke:none;" d="M172 92L173 93L172 92z"/>
<path style="fill:#92c14f; stroke:none;" d="M41 93L42 94L41 93M49 93L50 94L49 93z"/>
<path style="fill:#0b447b; stroke:none;" d="M81 93L82 94L81 93z"/>
<path style="fill:#92c14f; stroke:none;" d="M88 93L89 94L88 93z"/>
<path style="fill:#3c7db2; stroke:none;" d="M157 93L158 94L157 93z"/>
<path style="fill:#92c14f; stroke:none;" d="M163 93L164 94L163 93M171 93L172 94L171 93z"/>
<path style="fill:#589b52; stroke:none;" d="M41 94L37 103L56 103L41 94z"/>
<path style="fill:#92c14f; stroke:none;" d="M157 94L158 95L157 94M164 94L165 95L164 94z"/>
<path style="fill:#3c7db2; stroke:none;" d="M170 94L171 95L170 94z"/>
<path style="fill:#92c14f; stroke:none;" d="M252 94L252 95L256 95L252 94M40 95L41 96L40 95M48 95L49 96L48 95z"/>
<path style="fill:#3c7db2; stroke:none;" d="M89 95L90 96L89 95M173 95L174 96L173 95z"/>
<path style="fill:#92c14f; stroke:none;" d="M49.6667 96.3333L50.3333 96.6667L49.6667 96.3333z"/>
<path style="fill:#589b52; stroke:none;" d="M82 96L83 97L82 96z"/>
<path style="fill:#92c14f; stroke:none;" d="M158 96L159 97L158 96M172.667 96.3333L173.333 96.6667L172.667 96.3333z"/>
<path style="fill:#3c7db2; stroke:none;" d="M246 96L247 97L246 96z"/>
<path style="fill:#92c14f; stroke:none;" d="M39 97L40 98L39 97z"/>
<path style="fill:#589b52; stroke:none;" d="M52 97L53 98L52 97z"/>
<path style="fill:#92c14f; stroke:none;" d="M53 97L54 98L53 97z"/>
<path style="fill:#589b52; stroke:none;" d="M56 110L56 111L89 111L79.8634 97.9213L74.6474 103.821L56 110z"/>
<path style="fill:#3c7db2; stroke:none;" d="M90 97L91 98L90 97z"/>
<path style="fill:#92c14f; stroke:none;" d="M159 97L160 98L159 97M171 97L172 98L171 97z"/>
<path style="fill:#589b52; stroke:none;" d="M173 97L174 98L173 97z"/>
<path style="fill:#92c14f; stroke:none;" d="M38 98L39 99L38 98M56.6667 98.3333L57.3333 98.6667L56.6667 98.3333M83 98L84 99L83 98M91 98L92 99L91 98z"/>
<path style="fill:#3c7db2; stroke:none;" d="M117 98L117 99L122 99L117 98M130 98L130 99L135 99L130 98M144 98L144 99L149 99L144 98z"/>
<path style="fill:#589b52; stroke:none;" d="M161 98L162 99L161 98z"/>
<path style="fill:#3c7db2; stroke:none;" d="M169 98L170 99L169 98z"/>
<path style="fill:#92c14f; stroke:none;" d="M173 98L174 99L173 98z"/>
<path style="fill:#589b52; stroke:none;" d="M178 98L179 99L178 98z"/>
<path style="fill:#3c7db2; stroke:none;" d="M187 98L187 99L192 99L187 98M202 98L202 99L207 99L202 98z"/>
<path style="fill:#92c14f; stroke:none;" d="M222 98L223 99L222 98z"/>
<path style="fill:#3c7db2; stroke:none;" d="M231 98L231 99L236 99L231 98z"/>
<path style="fill:#92c14f; stroke:none;" d="M248 98L249 99L248 98z"/>
<path style="fill:#3c7db2; stroke:none;" d="M249 98L250 99L249 98M255 98L256 99L255 98M262 98L262 99L267 99L262 98z"/>
<path style="fill:#0b447b; stroke:none;" d="M58 99L59 100L58 99z"/>
<path style="fill:#589b52; stroke:none;" d="M59 99L60 100L59 99z"/>
<path style="fill:#92c14f; stroke:none;" d="M60 99L61 100L60 99M82 99L83 100L82 99z"/>
<path style="fill:#3c7db2; stroke:none;" d="M84 99L85 100L84 99z"/>
<path style="fill:#92c14f; stroke:none;" d="M164 99L164 100L168 100L164 99M37 100L38 101L37 100z"/>
<path style="fill:#0b447b; stroke:none;" d="M61 100L62 101L61 100z"/>
<path style="fill:#92c14f; stroke:none;" d="M63.6667 100.333L64.3333 100.667L63.6667 100.333M76.3333 100.667L76.6667 101.333L76.3333 100.667z"/>
<path style="fill:#589b52; stroke:none;" d="M92 100L93 101L92 100z"/>
<path style="fill:#0b447b; stroke:none;" d="M64 101L64 102L69 103L69 102L64 101z"/>
<path style="fill:#589b52; stroke:none;" d="M66 101L67 102L66 101z"/>
<path style="fill:#92c14f; stroke:none;" d="M67 101L68 102L67 101M83 101L84 102L83 101z"/>
<path style="fill:#3c7db2; stroke:none;" d="M85 101L86 102L85 101z"/>
<path style="fill:#92c14f; stroke:none;" d="M36 102L37 103L36 102z"/>
<path style="fill:#3c7db2; stroke:none;" d="M69 102L70 103L69 102z"/>
<path style="fill:#92c14f; stroke:none;" d="M70 102L71 103L70 102M84 102L85 103L84 102z"/>
<path style="fill:#3c7db2; stroke:none;" d="M93 102L94 103L93 102z"/>
<path style="fill:#589b52; stroke:none;" d="M86 103L87 104L86 103z"/>
<path style="fill:#92c14f; stroke:none;" d="M32 111L55 110.582L75 105C67.9036 102.022 43.4787 101.333 36.3796 104.603C33.8279 105.779 32.8985 108.579 32 111M85 104L86 105L85 104z"/>
<path style="fill:#3c7db2; stroke:none;" d="M94 104L95 105L94 104z"/>
<path style="fill:#92c14f; stroke:none;" d="M87 105L88 106L87 105M95 105L96 106L95 105M86 106L87 107L86 106z"/>
<path style="fill:#3c7db2; stroke:none;" d="M88 106L89 107L88 106z"/>
<path style="fill:#589b52; stroke:none;" d="M96 107L97 108L96 107z"/>
<path style="fill:#3c7db2; stroke:none;" d="M89 108L90 109L89 108z"/>
<path style="fill:#0b447b; stroke:none;" d="M169 108L167 115L168 115L171 108L169 108z"/>
<path style="fill:#92c14f; stroke:none;" d="M178 108L177 111L178 111L178 108z"/>
<path style="fill:#3c7db2; stroke:none;" d="M179.667 108.333L180.333 108.667L179.667 108.333z"/>
<path style="fill:#589b52; stroke:none;" d="M183 108L184 109L183 108z"/>
<path style="fill:#92c14f; stroke:none;" d="M184 108L185 109L184 108z"/>
<path style="fill:#3c7db2; stroke:none;" d="M187 108L188 109L187 108z"/>
<path style="fill:#589b52; stroke:none;" d="M190 108L190 112L191 112L192 108L190 108z"/>
<path style="fill:#3c7db2; stroke:none;" d="M194 108L194 112L193 112L192 109L191 109L194 115L195 115L194 108z"/>
<path style="fill:#589b52; stroke:none;" d="M197 108L198 109L197 108z"/>
<path style="fill:#3c7db2; stroke:none;" d="M198 108L199 115L200 115L202 109L198 108M205 108L203 115L204 115L205 110L206 110L207 115L208 115L207 108L205 108z"/>
<path style="fill:#92c14f; stroke:none;" d="M210 108L211 109L210 108z"/>
<path style="fill:#3c7db2; stroke:none;" d="M211 108L211 115L212 115L214 115L215 115L215 108L214 108L211 108z"/>
<path style="fill:#92c14f; stroke:none;" d="M215 108L216 109L215 108M221 108L220 114L221 114L221 109L225 109L221 108z"/>
<path style="fill:#3c7db2; stroke:none;" d="M222 108L223 109L222 108z"/>
<path style="fill:#0b447b; stroke:none;" d="M223 108L224 109L223 108z"/>
<path style="fill:#589b52; stroke:none;" d="M227 108L228 109L227 108z"/>
<path style="fill:#0b447b; stroke:none;" d="M228 108L226 113L227 113L228 108z"/>
<path style="fill:#3c7db2; stroke:none;" d="M229 108L230 109L229 108z"/>
<path style="fill:#589b52; stroke:none;" d="M233 108L233 111L234 111L233 108z"/>
<path style="fill:#0b447b; stroke:none;" d="M234 108L236 114L237 114L239 108L238 108L237 112L236 112L234 108z"/>
<path style="fill:#589b52; stroke:none;" d="M239 108L240 109L239 108z"/>
<path style="fill:#0b447b; stroke:none;" d="M242 108L242 115L243 115L246 112L246 111L243 112L243 109L246 110L242 108z"/>
<path style="fill:#589b52; stroke:none;" d="M245 108L246 109L245 108z"/>
<path style="fill:#0b447b; stroke:none;" d="M250 108L252 110L250 108z"/>
<path style="fill:#3c7db2; stroke:none;" d="M251 108L252 109L251 108z"/>
<path style="fill:#92c14f; stroke:none;" d="M255 108L255 115L256 115L255 108z"/>
<path style="fill:#0b447b; stroke:none;" d="M256 108L256 115L257 115L256 108z"/>
<path style="fill:#589b52; stroke:none;" d="M259.667 108.333L260.333 108.667L259.667 108.333z"/>
<path style="fill:#92c14f; stroke:none;" d="M262 108L263 109L262 108z"/>
<path style="fill:#0b447b; stroke:none;" d="M263 108L265 115L266 115L263 108z"/>
<path style="fill:#3c7db2; stroke:none;" d="M266 108L267 109L266 108z"/>
<path style="fill:#589b52; stroke:none;" d="M267 108L268 109L267 108z"/>
<path style="fill:#92c14f; stroke:none;" d="M88 109L89 110L88 109z"/>
<path style="fill:#3c7db2; stroke:none;" d="M97 109L98 110L97 109z"/>
<path style="fill:#92c14f; stroke:none;" d="M168 109L169 110L168 109z"/>
<path style="fill:#3c7db2; stroke:none;" d="M178 109L178 114L178 115C182.071 114.123 180.337 111.248 178 109z"/>
<path style="fill:#92c14f; stroke:none;" d="M180 109L181 110L180 109z"/>
<path style="fill:#3c7db2; stroke:none;" d="M184 109L185 115L186 115L187 110L184 109z"/>
<path style="fill:#589b52; stroke:none;" d="M186.667 109.333L187.333 109.667L186.667 109.333z"/>
<path style="fill:#92c14f; stroke:none;" d="M200 109L201 110L200 109M204 109L205 110L204 109M213 109L214 110L213 109z"/>
<path style="fill:#0b447b; stroke:none;" d="M221 109L224 115L224 114L221 109z"/>
<path style="fill:#3c7db2; stroke:none;" d="M226 109L227 110L226 109z"/>
<path style="fill:#fefefe; stroke:none;" d="M228 109L228 114L229 114L228 109z"/>
<path style="fill:#589b52; stroke:none;" d="M229 109L230 110L229 109z"/>
<path style="fill:#0b447b; stroke:none;" d="M230 109L227 114L227 115C230.231 113.93 231.241 112.264 230 109z"/>
<path style="fill:#92c14f; stroke:none;" d="M235 109L236 110L235 109M237 109L238 110L237 109z"/>
<path style="fill:#3c7db2; stroke:none;" d="M239 109L239 115L240 115L239 109z"/>
<path style="fill:#92c14f; stroke:none;" d="M243 109L243 112L244 112L243 109z"/>
<path style="fill:#fefefe; stroke:none;" d="M244 109L244 112L245 112L244 109z"/>
<path style="fill:#589b52; stroke:none;" d="M246 109L245 111L246 109z"/>
<path style="fill:#92c14f; stroke:none;" d="M249 109L253 111L253 110L249 109z"/>
<path style="fill:#3c7db2; stroke:none;" d="M250 109L251 110L250 109M257 109L258 110L257 109M258 112L261 109L258 112z"/>
<path style="fill:#92c14f; stroke:none;" d="M264 109L265 110L264 109z"/>
<path style="fill:#0b447b; stroke:none;" d="M266 109L267 110L266 109z"/>
<path style="fill:#589b52; stroke:none;" d="M90 110L91 111L90 110z"/>
<path style="fill:#92c14f; stroke:none;" d="M98 110L99 111L98 110M169 110L169 111L172 111L172 110L169 110z"/>
<path style="fill:#3c7db2; stroke:none;" d="M170 110L171 111L170 110z"/>
<path style="fill:#92c14f; stroke:none;" d="M185 110L186 111L185 110M205 110L205 114L206 114L207 114L205 110M207 110L208 111L207 110M211 110L212 111L211 110M214 110L215 111L214 110M227 110L228 111L227 110z"/>
<path style="fill:#3c7db2; stroke:none;" d="M246.333 110.667L246.667 111.333L246.333 110.667z"/>
<path style="fill:#0b447b; stroke:none;" d="M249 110L248 115L249 115L249 110z"/>
<path style="fill:#3c7db2; stroke:none;" d="M251 110L252 111L251 110z"/>
<path style="fill:#92c14f; stroke:none;" d="M263 110L264 111L263 110M265 110L266 111L265 110z"/>
<path style="fill:#3c7db2; stroke:none;" d="M266 110L267 111L266 110z"/>
<path style="fill:#fefefe; stroke:none;" d="M169 111L170 112L169 111z"/>
<path style="fill:#0b447b; stroke:none;" d="M171 111L171 114L172 114L171 111z"/>
<path style="fill:#589b52; stroke:none;" d="M180 111L181 112L180 111z"/>
<path style="fill:#92c14f; stroke:none;" d="M184 111L185 112L184 111M191 111L191 115L192 115L191 111M193 111L194 112L193 111z"/>
<path style="fill:#fefefe; stroke:none;" d="M205 111L206 112L205 111z"/>
<path style="fill:#589b52; stroke:none;" d="M227 111L228 112L227 111z"/>
<path style="fill:#3c7db2; stroke:none;" d="M233 111L233 115L234 115L233 111z"/>
<path style="fill:#92c14f; stroke:none;" d="M234 111L234 113L236 113L234 111M236 111L237 112L236 111M238 111L238 115L239 115L238 111z"/>
<path style="fill:#fefefe; stroke:none;" d="M250 111L251 112L250 111z"/>
<path style="fill:#0b447b; stroke:none;" d="M252 111L252 115L253 115L252 111z"/>
<path style="fill:#92c14f; stroke:none;" d="M257 111L258 112L257 111z"/>
<path style="fill:#589b52; stroke:none;" d="M259 111L260 115L261 115L259 111z"/>
<path style="fill:#92c14f; stroke:none;" d="M167 112L168 113L167 112z"/>
<path style="fill:#589b52; stroke:none;" d="M169 112L170 113L169 112z"/>
<path style="fill:#3c7db2; stroke:none;" d="M170 112L171 113L170 112z"/>
<path style="fill:#92c14f; stroke:none;" d="M181.333 112.667L181.667 113.333L181.333 112.667M186 112L187 113L186 112z"/>
<path style="fill:#3c7db2; stroke:none;" d="M190.333 112.667L190.667 113.333L190.333 112.667z"/>
<path style="fill:#589b52; stroke:none;" d="M206 112L207 113L206 112z"/>
<path style="fill:#92c14f; stroke:none;" d="M211 112L212 113L211 112M214 112L215 113L214 112M227 112L228 113L227 112z"/>
<path style="fill:#3c7db2; stroke:none;" d="M245 112L246 113L245 112z"/>
<path style="fill:#92c14f; stroke:none;" d="M248 112L249 113L248 112z"/>
<path style="fill:#589b52; stroke:none;" d="M250 112L251 113L250 112z"/>
<path style="fill:#3c7db2; stroke:none;" d="M251 112L252 113L251 112z"/>
<path style="fill:#0b447b; stroke:none;" d="M258 112L259 115L260 115L260 112L258 112z"/>
<path style="fill:#589b52; stroke:none;" d="M264 112L265 113L264 112z"/>
<path style="fill:#3c7db2; stroke:none;" d="M167 113L168 114L167 113z"/>
<path style="fill:#92c14f; stroke:none;" d="M169.667 113.333L170.333 113.667L169.667 113.333M172 113L173 114L172 113z"/>
<path style="fill:#589b52; stroke:none;" d="M203 113L204 114L203 113z"/>
<path style="fill:#92c14f; stroke:none;" d="M212.667 113.333L213.333 113.667L212.667 113.333z"/>
<path style="fill:#3c7db2; stroke:none;" d="M226.667 113.333L227.333 113.667L226.667 113.333z"/>
<path style="fill:#92c14f; stroke:none;" d="M229 113L230 114L229 113z"/>
<path style="fill:#589b52; stroke:none;" d="M234.333 113.667L234.667 114.333L234.333 113.667z"/>
<path style="fill:#92c14f; stroke:none;" d="M243.333 113.667L243.667 114.333L243.333 113.667z"/>
<path style="fill:#3c7db2; stroke:none;" d="M248 113L249 114L248 113z"/>
<path style="fill:#92c14f; stroke:none;" d="M250.667 113.333L251.333 113.667L250.667 113.333M253 113L254 114L253 113M258 113L259 114L258 113M264.333 113.667L264.667 114.333L264.333 113.667M168 114L169 115L168 114z"/>
<path style="fill:#3c7db2; stroke:none;" d="M171.667 114.333L172.333 114.667L171.667 114.333z"/>
<path style="fill:#92c14f; stroke:none;" d="M177 114L178 115L177 114z"/>
<path style="fill:#589b52; stroke:none;" d="M190 114L191 115L190 114z"/>
<path style="fill:#92c14f; stroke:none;" d="M204 114L205 115L204 114z"/>
<path style="fill:#589b52; stroke:none;" d="M208 114L209 115L208 114z"/>
<path style="fill:#92c14f; stroke:none;" d="M210 114L211 115L210 114M215 114L216 115L215 114z"/>
<path style="fill:#3c7db2; stroke:none;" d="M221 114L222 115L221 114z"/>
<path style="fill:#92c14f; stroke:none;" d="M224 114L225 115L224 114M230 114L231 115L230 114M249 114L250 115L249 114z"/>
<path style="fill:#589b52; stroke:none;" d="M253 114L254 115L253 114z"/>
</svg>
