<svg xmlns="http://www.w3.org/2000/svg" width="961" height="1000"><path style="fill:#fdfdfd;stroke:none" d="M0 0v1000h961V0H0z"/><path style="fill:#020203;stroke:none" d="M368 10v14H74v332H5v356h18v282h903V712h31V356h-76v-73H749v73H642V110c0-9.211 1.045-18.1-4.637-26C623.653 64.942 590.57 58.47 569 54.004c-64.083-13.269-134.714-13.437-199-1.392C346.685 56.98 305.067 63.74 293 87h-1c.8-5.335 11.588-24.438 18-17l8-4-3-1v-1c6.334-1.09 16.046-8.263 22-5l11-3-1-3c7.207-.93 15.111-.494 22-1.813 5.945-1.139 10.803-4.15 17-4.722 10.832-1.001 20.461.404 30-6.465l-2 5c38.364-1.647 75.664-2.026 114 1v-5h1c1.309 4.675 7.199 8.344 11 4l25 4c.496 3.963 6.474 4 10 5l-1-3 21 5-1 3 12 4 18 4v1h-3l10 7v-2c5.476 3.86 9.622 8.091 10 15h1V10H503c8.13 10.05 23.526 16.704 25 31h-1l-7-13h-1l3 11-22-1c0-6.2 1.68-22.783-5-25l1 25c-4.042 0-12.219 1.58-14.821-2.318-3.579-5.364 2.966-22.118-4.407-24.364-12.663-3.857-30.213 5.076-37.532 14.686C435.369 31.086 434.586 39.046 428 41l8-19c-5.981 2.581-11.837 6.17-15 12h-1c4.783-10.052 13.902-20.34 25-23l-24-1h-53z"/><path style="fill:#fdfdfd;stroke:none" d="M547 91c10.486 1.332 26.915 8.87 37 6.933 7.91-1.519 18.255-15.834 21-22.933-9.891-5.191-22.241-7.933-33-10.96-3.801-1.07-10.029-2.21-13.582.139C552.661 67.986 547.984 84.439 547 91M309 80l13 29h1l-9-31-5 2m284 22c8.684 2.722 23.32-8.224 24.118-17.895.759-9.2-10.527-.26-12.389 1.896L599.589 92c-2.671 3.19-5.083 6.111-6.589 10m-270 15-17-34c-22.756 8.89.338 37.461 17 34m-31.667-29.333.334.666-.334-.666M608 108c8.329 5.712 22.298-1.042 22.847-11.995.379-7.553-7.09-7.009-11.118-2.892-1.822 1.862-3.458 3.911-5.153 5.887-2.511 2.927-4.948 5.503-6.576 9m-63-13c1.56 9.429 30.951 13.177 37 7-11.043-4.143-25.206-6.902-37-7m-229 26 5 6 6-7-4 7 1 1c4.408-2.126 6.623-4.981 3-9 31.012-12.895 63.815-15.817 97-18.089 38.662-2.648 78.494-2.197 117 2.807 19.134 2.487 58.825 3.844 69 23.282l6-6c-7.518 1.214-11.511-3.751-18-6.687-6.579-2.976-14.006-4.485-21-6.183-27.245-6.617-56.102-8.87-84-10.09-41.51-1.818-84.049.506-125 7.374-11.192 1.877-22.448 3.878-33 8.191-6.565 2.683-11.603 8.364-19 7.395m274-16c.736 4.407 2.842 5.107 7 4v-2l-7-2m-50 3v1c9.454 3.547 27.198 8.816 37 6v-2c-10.922-2.827-25.887-8.285-37-5m63 4c2.656 3.17 4.843 4.674 9 4-2.656-3.17-4.843-4.674-9-4m-20 3-1 4c4.09 1.282 6.773 2.198 10-1l-9-3m14 5-1 4 8 3 1-4-8-3m-129.397 12.157c-1.733 1.157.061 3.845 1.794 2.686 1.733-1.158-.061-3.844-1.794-2.686M426 135v1h4l-4-1m72-1-1 3 1 1 3-1v-2l-3-1m-99.436 2.171c-1.991 1.3-.323 5.09 1.872 3.658 1.991-1.3.323-5.09-1.872-3.658M528 138c1.218 7.309 7.309 1.218 0 0m-60 7v2l28 2c-2.621-8.298-21.515-7.121-28-4m31 1-1 1 1 4 4-2-4-3m-83 1v5l4-3-4-2m94 0 1 4h2l1-1v-2l-4-1m-91 81 11-4-3 6c6.707-2.095 14.397-5.09 17 4l14-17-16 1c13.188-12.037 33.564-22.868 51-27v1c-9.161 3.814-23.558 9.677-28 19l10-5-2 5 14-6-9 13-1-3c-7.557 1.966-13.538 9.445-15 17l12-10-3 7 6 1 9-5-2 6 8-4 12.199 12.985L500 252c-4.395 1.542-6.121 3.601-4 8l-3 1 15 2.805L533 271l-14-14v-1l21 5-16-11 20-4c-6.54-6.871-20.322-6.097-29-5v-1l19-4.961L552 234l-24-3v-1c18.008-4.116 27.157 1.148 44 6-2.282-8.67-7.873-8.783-16-11v-1l9-2 1-3c-5.511-7.823-12.188-13.552-22-14v1l20 12v1l-43 7 3-6-23 2v-1c9.02-2.461 18.601-4.543 26.741-9.289 12.237-7.134 3.763-10.22-5.741-7.838a287.134 287.134 0 0 0-8 2.127l11-8h-5c-5.074-8.245-17.434-4.133-25-3v-1l21-7c-9.27-4.937-17.137-1.007-26 2.603-17.376 7.08-34.847 14.222-51 23.794-6.095 3.612-17.66 7.516-20 14.603m111-36v1l18 8c-2.948-5.993-11.444-9.81-18-9z"/><path style="fill:#020203;stroke:none" d="m493.667 195.333.666.334-.666-.334M488 211l5 3-1-4-4 1m5 9 19-7c-6.419-2.669-15.745 1.066-19 7z"/><path style="fill:#fdfdfd;stroke:none" d="m455 232 8-15c-5.106 2.655-8.259 9.325-8 15m73-14v2h14c-3.114-4.318-9.347-3.375-14-2z"/><path style="fill:#020203;stroke:none" d="m474 221 1 1-1-1z"/><path style="fill:#fdfdfd;stroke:none" d="m567 221 2 2-2-2z"/><path style="fill:#020203;stroke:none" d="m500 222 1 1-1-1m-8 4 1 1-1-1z"/><path style="fill:#fdfdfd;stroke:none" d="M363 286c6.039-4.254 10.456-10.6 17-14.196 7.665-4.213 17.445-1.591 21-11.804l-15 2v-1c5.235-2.604 22.833-10.897 14-17l6-5c-15.228.324-24.856 16.23-33.611 27-5.547 6.823-10.024 10.91-9.389 20m76-34c-4.208-8.755-15.912-8.971-22-2 4.426-1.803 9.244-4.281 13.96-1.821 3.843 2.005 5.323 6.524 10.08 6.743 5.631.26 9.094-4.454 13.96-6.439 9.595-3.913 19.014.992 22 10.517 4.353-10.677-10.089-17.937-19-16.66-7.337 1.052-12.551 6.596-19 9.66m114 4 9.127 8.059L564 276h2c5.242-9.358-.104-25.93-13-20m-103 6v1c6.336 1.872 12.392.909 16-5l-16 4m-34-2c2.232 3.978 4.526 4.854 9 5v-1l-9-4m71 7v2l33 8.901L537 289c-.682-3.175-.687-9.969-2.654-12.351-2.431-2.945-7.892-3.832-11.346-4.982-11.352-3.781-24.248-8.392-36-4.667m-122 31c7.162-5.775 15.126-15.681 19-24-10.438-1.475-20.111 15.16-19 24m141-22 8.991 11.093L528 313h1l-9-24 7 10c5.115-1.703 3.694-6.393.721-9.96-4.827-5.792-14.31-11.703-21.721-13.04m-96 40h1c1.203-4.239 1.951-10.247 5.419-13.297 5.807-5.107 33.509-7.039 39.067-1.269 3.101 3.219 2.511 8.468 2.514 12.566 11.69-5.497 17.921-21.18 4.996-29.258-3.79-2.368-7.081-.424-10.996-1.345-3.258-.767-5.526-3.597-9-3.868-3.738-.292-6.545 2.276-10 3.075-9.125 2.111-11.075.686-19.285 6.809-2.318 1.728-5.814 1.927-7.112 4.815-2.8 6.236 1.461 15.821 3.397 21.772m-41-15c5.158-1.461 7.514-4.996 9-10l-1-1c-4.707 2.302-6.741 6.019-8 11m465-4v1l4 2v-1l-4-2m-659 6v1l10 3-10-4m191.333.667.334.666-.334-.666M762 308l-1.811 22L767 350h1c-.67-19.392 19.104-25.032 34-32v-1c-7.992.653-15.387 3.722-22 8.195-3.495 2.364-8.573 7.836-12.941 8.113-9.84.623-1.46-15.61.815-18.308 2.778-3.293 5.667-6.467 8.126-10-5.313 2.231-8.142 5.308-14 3m-186.667-.333.334.666-.334-.666M189 315c-5.412 12.9-20.437 3.937-32 10v1c8.272-3.185 16.184-4.422 23.907 1.108 4.522 3.238 8.895 11.556 3.39 16.198-3.647 3.076-14.239-1.468-19.297-.306v1c11.482.238 15.999 4.72 16 16l6-4 4.496-16-.496-25h-2m272 23-1 7-41.896-.031L411 340l2 19 13-.938 11 2.713 10.576-3.327 9.424 1.973L468 356c1.707-6.774-1.646-13.798-7-18m321 28c-5.648-11.805 13.592-19.29 23-22-6.817-2.016-22.047 5.227-26.682 10.329-3.914 4.308-2.616 11.768 3.682 11.671m-646-1-2 1v1l2-2m-1 12v1l6-4-6 3m452 0 2 12 9 5c-4.098-.034-10.98-2.762-14.663-1.311-6.13 2.416 7.096 6.883 8.663 7.311l-2 3v1l14 14c-7.047-4.349-14.204-12.754-23-12 4.814 6.693 20.409 21.391 29 20l-3-5 3-1-8-12 20 14-5-10c9.471 1.008 15.041 3.64 23 9.022 2.23 1.507 6.447 5.319 9.396 3.61 4.383-2.541-4.091-20.622-5.396-24.632l15 8-2-7 22 2c-28.031-13.109-61.265-26.02-92-26m231 0 3 7-3-7m-687 14 10-3c-3.577 3.738-8.125 7.603-8 13 7.294-3.954 13.823-11.491 13-20l-15 10m684-6 1 1-1-1m1 2 1 1-1-1m-668 1-14 20 14-12 5 6-5-14m665 1 3 12h1l-4-12m-590 43 1 3c12.626-2.435 22.721-13.132 34-18.621 15.136-7.367 32.516-11.021 49-13.793 6.792-1.142 26.147-5.11 30-10.586-26.355-1.114-51.839 9.465-76.004 18.561-8.398 3.161-21.675 3.563-28.758 9.078-3.396 2.645-6.546 8.81-9.238 12.361m586-41 .668 12L807 417h1c3.811-9.153 8.783-17.171 1-26z"/><path style="fill:#020203;stroke:none" d="M614 398v1l17 10c-4.256-5.515-10.487-8.779-17-11z"/><path style="fill:#fdfdfd;stroke:none" d="M325 402v1l7-2-7 1m-180 1c9.122 16.384 13.277 31.895 17 50h-1l-4-4-1 3h-1c-3.147-8.314-10.184-20.478-18-25l13.688 22L158 476l2-4h2l2 8h2v-27h1c.698 5.183 1.501 17.109 8 17l-15-40h1l15 30h1c-2.295-18.067-11.174-30.61-18-47h-1l-1 3-12-13m537 2-3 9h12l-9-9m-379.333 3.333.666.334-.666-.334M238 435v1l63-26c-4.793-1.455-10.211 1.62-15 2.539-17.501 3.358-33.719 11.884-48 22.461z"/><path style="fill:#020203;stroke:none" d="m616 411 1 1-1-1z"/><path style="fill:#fdfdfd;stroke:none" d="M584 413c1.599 6.723 6.757 10.602 13 13-2.064-6.071-6.929-10.936-13-13z"/><path style="fill:#020203;stroke:none" d="M640 415v1l5 3-5-4z"/><path style="fill:#fdfdfd;stroke:none" d="M681 420v2l28 18v1l-17-7v1c26.903 17.802 62.609 39.137 78 68 3.758-3.317 7.176-12.9 3.396-17.39-7.378-8.764-22.955-14.355-32.396-21.034-17.431-12.334-35.689-31.1-48-48.576l-12 4z"/><path style="fill:#020203;stroke:none" d="m604 418 1 1-1-1m-368 6v1l11-4-11 3m370-4 1 1-1-1z"/><path style="fill:#fdfdfd;stroke:none" d="m581 423-1 1 7 8-4-9h-2m-293 1 1 1-1-1m-2.333 1.333.666.334-.666-.334M187 468h1l12-18-10 5 28-23c-9.446-3.955-30.74 10.749-33.226 20-1.259 4.687 1.613 11.25 2.226 16m623-35 2 6h1l2-6h-5m-235 1 7 11c.037-4.9-2.155-9.485-7-11m-163 26h1l8-16 3 1-7.212 15.726L424 472h1l5-26 5 1c-4.417 6.371-6.978 10.058-7 18l6 1 1 8h1c.161-7.748 2.933-24.137 13-23v1c-10.281 4.91-9.103 13.819-4 22l11-17c-2.533 7.922-3.552 13.948-1 22 21.072-8.164 15.736-32.089-2.001-41-9.279-4.662-17.093.719-25.999 3.115-8.555 2.302-20.908 8.255-15 18.885m405-23-3 9h1l2-9z"/><path style="fill:#020203;stroke:none" d="m710 442 10 9-10-9z"/><path style="fill:#fdfdfd;stroke:none" d="m143 451 6 17h1c-1.128-5.45-2.191-13.709-7-17m671 4c-5 9.021-4.972 23.788-5 34h1l4-34m-341 7-13 19c5.999-2.589 19.57-11.523 13-19m-334 5-.957 16L141 506h2l-1-22h1l1 13h1c2.641-8.934 1.329-23.6-6-30m338 2-15 14 6 19-6 1v1h6l5 15h-6l1 4h1v-3l17 15v1l-9 1v1c6.942 1.342 25.605 9.008 29.5-1.028.853-2.197-.005-13.647-2.5-9.972h-1l-2-16c47.801-18.54 92.382-30 144-30v-1c-30.348-.084-59.013-.199-89 6.424-19.721 4.356-37.97 12.138-57 18.576-1.335-2.959-8.224-18.47-11-16h-1c.708-7.409-4.49-15.312-10-20m-134 5v1c34.437 2.813 67.15 17.982 96 36.05 5.806 3.636 9.564 9.675 15 12.95-1.088-5.273-5.063-13.226-2-18v-1l-5-3v5c-8.643-4.601-16.18-11.299-25-15.508-22.002-10.499-54.678-17.489-79-17.492m80 7c4.449.81 7.62 1.312 10-3-4.541-2.182-9.015-2.901-10 3m394-5v3l2-3h-2m-13.667 8.667.334.666-.334-.666M457 486l2 3-2-3m-11 2c-1.414 4.827-1.447 11.104 4 13l-4-13m349 2-6 2 1 13h1l4-15m-658 12v9h1l-1-9m175 16v4l5-1v-2l-5-1z"/><path style="fill:#020203;stroke:none" d="M480 518v1h3l-3-1z"/><path style="fill:#fdfdfd;stroke:none" d="m452 525 3 7-3-7m-136 2 6 24h1l-5-24h-2z"/><path style="fill:#020203;stroke:none" d="m502 527 1 1-1-1z"/><path style="fill:#fdfdfd;stroke:none" d="m449 536-11 19-2-2-9 15c-6.978 1.306-15.296 15.168-16 22l5-8c7.331-1.279 19.693-17.785 21-25h1l1 2c5.026-6.173 15.872-14.403 10-23m182 15 3-1-2 5c-4.227-2.747-6.349-1.683-8 3l15.001-6.972L648 549l8 3 2-4c-9.11-5.828-20.774-9.501-27 3m-129-8c-11.966 3.545-18.219 8.387-23 21 10.288-.028 24.138-8.89 23-21z"/><path style="fill:#020203;stroke:none" d="m492 548-8 14c6.429-1.063 7.898-8.582 10-14h-2m154.667.333.666.334-.666-.334M634 549l1 1-1-1z"/><path style="fill:#fdfdfd;stroke:none" d="M362 568c-2.347-5.6-5.523-10.573-11-13.583-25.58-14.057-43.994 17.445-38.334 39.583 2.934 11.478 14.345 16.411 24.056 8.298 6.342-5.299 4.507-16.496 8.418-23.255 3.299-5.702 11.429-7.873 16.86-11.043m288-14-1 6h1v-6m3 3 3-3-3 3m-18-1-4 5c3.22-.535 5.124-1.572 4-5m-47 4-11 15h-1l5-11c-21.438 15.102-33.093 39.21-47.721 60-6.085 8.65-15.442 15.675-20.279 25l7-3-4 8 13-9-1 15h1l16-31 2 2 12-17-10 6 17.972-16.594L574 577h1c-3.949 10.237-3.233 21.038-6.951 31-8.295 22.221-37.819 57.817-3.049 71v1l-19-1v2l26 8-2-7 6-6 11 7c-2.832-3.427-7.417-5.367-9.721-9.184C572.655 666.157 574 651.732 574 643h1c.352 7.696 3.162 19.61 10 24-.21 4.905 2.209 8.065 6 11l9-12c-2.378 4.272-8.879 10.537-3 14l4-11h1l1 6-4 2v2h9v3l18-12v-1h-13v-1c7.25-.921 21.884-.901 27.61-5.599 7.854-6.446 10.716-21.373 17.39-29.401-.917 3.209-3.152 7.092 1 8v1c-4.008.967-6.71 1.903-8 6l6-4-1 4 22-9c-2.169-6.208-7.122-13.879-13-17l-5 2 5 6-15-6v6h-4c1.899-3.866 3.228-6.6-1-9l-3 10h-1l1-12c-5.203-2.087-19.04-.949-21 5l3-2-8 21h-1l-4-14-3 17h-1l1-16h-1l-6.303 20L587 665c7.57-10.748 16.395-22.402 13.647-37-.598-3.178-2.803-5.86-3.647-9l-8-1 5-20-6 5 1-11-6 2c-.872-7.883 9.428-9.542 6-17 6.454.254 9.204-.373 14-5v-1l-7-9-8-2m23 40h-1v-6h-1l-5 24 9-2-2-13h1l2 13h1v-17l8 3 1-4h1c1.942 3.503 4.045 4.644 8 4l1 6c6.319-4.303 12.732-8.365 15-16l-8-1c4.07-4.156 11.812-.791 14.872-5.318 8.023-11.869-1.318-13.456-9.068-17.17-2.736-1.311-4.514-5.296-7.819-5.306-3.54-.01-5.755 4.181-8.985 5.178-3.448 1.064-6.475-1.628-9.892.493-8.11 5.035-9.102 22.66-9.108 31.123m-304-34 1 1-1-1m157 17v1c13.386-.111 19.357-6.07 25-18l-17 15 8-15-16 17z"/><path style="fill:#020203;stroke:none" d="M591 566v1h3l-3-1z"/><path style="fill:#fdfdfd;stroke:none" d="M355 573v2l4 9c4.918-1.138 20.234-11.832 7.811-14.932-3.806-.95-8.67 2.146-11.811 3.932z"/><path style="fill:#020203;stroke:none" d="m587 570 4 2-4-2m7 1 4 2-4-2m-261 3c-3.899 1.009-8.297 1.344-11.981 2.995-14.707 6.59 3.115 30.355 11.011 13.001.992-2.18 1.542-4.622 1.796-6.996.339-3.154.063-5.992-.826-9m242.333 1.667.334.666-.334-.666z"/><path style="fill:#fdfdfd;stroke:none" d="m326 577 5 8 1-9-6 1z"/><path style="fill:#020203;stroke:none" d="M622 576c1.724 10.683 13.66 13.128 19 4-8.628 4.17-10.66-2.023-19-4m-38 6v1h3l-3-1z"/><path style="fill:#fdfdfd;stroke:none" d="m358 593 12-4-1-5c-5.626.843-12.135 2.232-11 9m103 6 7-13-15 15v1c13.249-.009 18.847-6.042 24-18l-16 15m131-4 9-6-10 28h12l5-26h-1l-8 18c.411-5.027 5.822-16.363 2-20l1-5c-5.298 2.054-8.856 5.332-10 11z"/><path style="fill:#020203;stroke:none" d="M579 585v3h1l-1-3z"/><path style="fill:#fdfdfd;stroke:none" d="M351 589c.682 3.304 2.523 7.61 1.357 10.945-2.482 7.104-20.752 10.527-27.357 12.055v1l10-2c.863 4.582.737 13.151 4.514 16.381 6.43 5.501 16.899-10.518 18.628-15.381 2.462-6.927-1.832-16.783-2.142-24l-5 1z"/><path style="fill:#020203;stroke:none" d="M578 589v11h1l-1-11z"/><path style="fill:#fdfdfd;stroke:none" d="M383 609c8.607-1.329 12.625-12.302 17-19-8.716 1.579-15.847 10.332-17 19m-24-9c4.643-1.337 10.339-3.138 12-8-5.137.885-11.019 2.295-12 8m47-8-2 6 4-6h-2m-35 5c-5.34 3.117-11.94 4.692-10 12 4.415-1.942 12.62-6.354 10-12m10 0c-2.378 1.709-4.748 3.414-7.002 5.287-1.675 1.393-3.35 2.817-4.953 4.292-2.428 2.235-6.078 9.985.776 7.62 4.58-1.58 11.574-12.609 11.179-17.199z"/><path style="fill:#020203;stroke:none" d="m625 597 1 1-1-1z"/><path style="fill:#fdfdfd;stroke:none" d="m451 616 6-12c-6.084 1.79-9.648 8.911-13 14 11.901-.099 16.172-5.66 21-16l-14 14m169-13 3 3-3-3m13 7-3 4 3-4m-452 9 9-4v1l-3 3 8-1v1l-2 15v2c22.191 5.07 14.384-36.921-6.981-23.259-2.499 1.598-3.802 3.674-5.019 6.259m439-8v3l3-1v-1l-3-1m5 0v2h2v-2h-2z"/><path style="fill:#020203;stroke:none" d="m190 614 1 1-1-1z"/><path style="fill:#fdfdfd;stroke:none" d="M446 629c4.566-2.498 6.578-6.076 8-11-4.504 2.302-6.599 6.24-8 11m-5-1 6-9c-4.467 1.398-5.542 4.558-6 9z"/><path style="fill:#020203;stroke:none" d="m548 620-1 2 1-2z"/><path style="fill:#fdfdfd;stroke:none" d="m610 624 4 4v-5l-4 1z"/><path style="fill:#020203;stroke:none" d="m571 628 2 14h1l-3-14z"/><path style="fill:#fdfdfd;stroke:none" d="m210 630-3 6c2.64-1.536 3.818-2.939 3-6z"/><path style="fill:#020203;stroke:none" d="m583 630 4 9h1l-5-9m10 1 3 3 1-4-4 1z"/><path style="fill:#fdfdfd;stroke:none" d="m213 632-3 7 6 1 6 6 1-3h1l-1 5 7 4 1-3h1l-1 4 16 9c2.032-5.558-4.608-13.365-6-7h-1c-.393-5.151-2.698-7.728-8-7-1.031-2.874-3.699-7.511-7-5h-1l-6-7-1 3h-1l-1-7h-2m-9 7 1 1-1-1m437 48 13-6-4-6c7.275-1.755 9.312-7.5 17-4l12-29c-22.859-5.238-37.949 26.685-38 45m-433-45 4 3v-1l-4-2m235 0c-7.921 7.854-23.366 12.801-24 25 9.184-2.702 24.864-14.104 24-25z"/><path style="fill:#020203;stroke:none" d="m591 644 5 4-1-5-4 1z"/><path style="fill:#fdfdfd;stroke:none" d="m274 655 13-11c-5.763 1.84-10.422 5.487-13 11m-61-9v1l5 2v-1l-5-2m233 0c-2.264 7.859-7.188 15.229-13.039 20.91-3.274 3.178-8.645 5.696-10.358 10.129-4.912 12.718-.163 32.259-2.028 45.961-.804 5.902-.756 11.989-5.575 16l2-60h-1l-4 63c11.091-1.663 21.093-9.214 30-15.579 3.613-2.582 8.638-5.155 10.411-9.46 4.581-11.122 2.607-31.246 1.013-42.961-1.047-7.691-.503-23.172-7.424-28m-244 2 1 1-1-1z"/><path style="fill:#020203;stroke:none" d="M615 648v3h1l-1-3z"/><path style="fill:#fdfdfd;stroke:none" d="M525 650c-18.934 14.428-24.331 42.097-30 64 3.867-2.555 4.108-7.259 7.238-10.545C513.795 691.324 532.742 668.451 525 650m-320 1 4 3v-1l-4-2m17 1v1l5 2v-1l-5-2m-12 4 6 5-6-5m19 0 7 5-7-5m21 1-1 7 6-5-5-2z"/><path style="fill:#020203;stroke:none" d="m604.333 658.667.334.666-.334-.666M618 658v3h1l-1-3z"/><path style="fill:#fdfdfd;stroke:none" d="m259 660-3 4 3-4m3 1-1 3 1-3m4.333.667.334.666-.334-.666M239 662l5 4-5-4m-21 1v1l7 4-7-5z"/><path style="fill:#020203;stroke:none" d="m586 665-1 2 1-2z"/><path style="fill:#fdfdfd;stroke:none" d="m246 667 1 1-1-1m11 2h3l-1-2-2 2m-4-1v2l2-2h-2m-26 2v1l17 9v-1l-17-9z"/><path style="fill:#020203;stroke:none" d="m571 673 1 4h2l1-3-4-1z"/><path style="fill:#fdfdfd;stroke:none" d="M274 680c-.186 22.526-2.475 44.597 7 66h1l-6.961-41L274 680z"/><path style="fill:#020203;stroke:none" d="m565.667 680.333.666.334-.666-.334m3 1 .666.334-.666-.334z"/><path style="fill:#fdfdfd;stroke:none" d="M601 681v1h3l-3-1m-353 1v1l3 1-3-2m294 0c1.602 4.873 6.524 4.841 11 6l-11-6m-289 1 5 3-5-3m389 103h1l6-24h1v4h1c0-3.887-1.903-14.282 3-15-.012-18.1-3.244-38.175 1-56h-5l7-7c-17.641-7.836-16.272 10.323-18.46 22-3.502 18.689-1.023 35.307 1.304 54 .889 7.143.134 15.16 2.156 22m-376-98v1h3l-3-1m283 7-1 8-8-3c3.242 10.927 21.898 10 31 10v-1l-5-4 6-3-9-4-2 10-7-1c-.001-5.469.615-9.617-5-12z"/><path style="fill:#020203;stroke:none" d="M648 701c2.396.575 2.487.475 3-2l-3 2z"/><path style="fill:#fdfdfd;stroke:none" d="m576 700-1 10 4 1 1-11h-4m22 1c-13.761.452-1.868 16.062-.109 4.04.192-1.307.097-2.728.109-4.04m-62 5c2.872 6.158 8.264 10.78 15 12-.08 5.277 4.921 8.21 9 11l2-8h-5v-1h5c-.118-9.94-10.516-11.504-19-10-1.736-3.283-3.29-4.14-7-4m70 1-10 5 2 2-2 6 7-1v-4l5 2-2-10m-74 2-1 9h1v-9m44 14c-3.945 1.94-10.462 8.921-6 13v1c-6.325 2.201-5.22 12.385-7 18 13.368 2.582 25-15.844 39-16l-14 8 2 2v1c-10.813 6.852-15.966 23.834-16 36 7.627 0 28.233 3.669 34.272-1.028 3.375-2.625 3.884-11.032 4.728-14.972 2.995-13.985 7.884-35.27-4-46l4-1c-9.289-5.674-22.624-1-33-1v-1c6.702-.079 8.456-2.412 9-9-8.357 0-19.128-.486-13 11m-13-7c3.229 7.61 10.736 5.089 9-3l-9 3m46.667 2.333.666.334-.666-.334z"/><path style="fill:#020203;stroke:none" d="m552 719 1 1-1-1m2 0 1 1-1-1z"/><path style="fill:#fdfdfd;stroke:none" d="M493 722v16h1l1-16h-2m67 13c6.958-.537 9.249-6.923 11-13-7.755.254-9.392 6.212-11 13m-109-11c-21.441 14.464-44.469 25.195-47 54 12.986-4.233 34.648-10.665 42.143-23.004 2.72-4.477 3.089-10.912 3.937-15.996.79-4.736 2.781-10.437.92-15z"/><path style="fill:#020203;stroke:none" d="m585 728-3 4v1l26-7-23 2z"/><path style="fill:#fdfdfd;stroke:none" d="M540 728c.406 7.807 6.063 15.488 13 19 2.969-12.534-1.318-14.136-13-19z"/><path style="fill:#020203;stroke:none" d="m580 733 1 1-1-1z"/><path style="fill:#fdfdfd;stroke:none" d="m562 754 3-17c-11.542-3.11-9.583 12.136-3 17z"/><path style="fill:#020203;stroke:none" d="M578 737v5h1l1-5h-2m65 9 6 16-3-16h-3z"/><path style="fill:#fdfdfd;stroke:none" d="M283 751c1.266 8.444 8.72 26.431 18 28-2.902-9.108-11.143-21.357-18-28m126 0-11 28c5.096-3.488 12.256-21.934 11-28m110 12-6 23h2l4-23m-77 2-25 13v1c9.171 0 30.815 2.391 25-14z"/><path style="fill:#020203;stroke:none" d="m643 768 1 7h1l-2-7z"/><path style="fill:#fdfdfd;stroke:none" d="M38 794v187h43l15.397-1.028L98 971V847h14v134h43l15.397-1.028L172 971V847h14v134h59V794H38m222 0v187h59v-43h89v38c14.716-6.962 28.371-17.758 42-26.656 4.847-3.164 13.018-6.337 15.972-11.528C471.106 928.793 467 907.35 467 897V794H260m221 0v104c0 9.848-4.056 31.205 1.028 39.674 2.968 4.946 11.267 8.192 15.972 11.326 13.323 8.874 28.053 21.334 43 27v-53l44 40.169 20 16.973 26 .858h58l-44-43h44V794H481m222 0v53h106c-24.458 22.528-49.609 44.308-74 66.911-9.457 8.764-21.886 16.812-29.682 27.093-4.289 5.655-4.909 31.187-1.715 37.678C705.339 982.209 711.811 981 715 981h180c3.904 0 10.101 1.159 13.682-.603C912.209 978.661 911 972.189 911 969v-30c0-2.98 1.073-8.853-1.603-10.972-2.94-2.329-9.866-1.028-13.397-1.028h-90c24.187-24.121 51.008-45.69 76-68.975 7.789-7.258 24.539-17.06 28.397-27.064 3.79-9.83.603-26.43.603-36.961H703z"/><path style="fill:#020203;stroke:none" d="M319 848v39h87l-44-19.861L319 848m225 38v1h85v-39c-29.376 6.978-56.83 27.071-85 38z"/></svg>